<?xml version="1.0" encoding="iso-8859-1"?>
<!-- Generator: Adobe Illustrator 16.0.0, SVG Export Plug-In . SVG Version: 6.00 Build 0)  -->
<!DOCTYPE svg PUBLIC "-//W3C//DTD SVG 1.1//EN" "http://www.w3.org/Graphics/SVG/1.1/DTD/svg11.dtd">
<svg version="1.1" id="Capa_1" xmlns="http://www.w3.org/2000/svg" xmlns:xlink="http://www.w3.org/1999/xlink" x="0px" y="0px"
	 width="188.437px" height="188.436px" viewBox="0 0 188.437 188.436" style="enable-background:new 0 0 188.437 188.436;"
	 xml:space="preserve">
<g>
	<path d="M187.767,123.873c0.804-12.371,1.687-25.569-2.558-37.37c0.063-0.586,0.051-1.171-0.05-1.707
		c-3.815-20.325-3.857-42.05,0.708-62.26c1.757-2.547,0.673-7.007-3.356-6.959c-30.272,0.357-60.396,3.312-90.617,4.803
		c-26.759,1.32-53.18-3.211-79.8-5.182c-2.819-1.205-4.447-1.37-7.724,0.159c-2.631,1.228-2.493,4.388-0.909,6.274
		c-0.44,0.574-0.768,1.264-0.776,2.185C2.501,44.985,1.32,66.227,1.994,87.392c-0.85,12.837-0.078,25.698,0.239,38.544
		C2.58,140.037-0.026,153.827,0,167.761c0.004,2.03,2.428,3.154,3.958,2.2c0.237,0.325,0.571,0.579,1.014,0.679
		c3.646,0.821,8.293,0.82,11.489,2.914c3.604,2.361,5.785-2.497,4.436-4.937c1.014-0.233,1.885-0.893,2.04-2.017
		c0.956-6.964,1.541-14.272,1.844-21.723c45.934,2.763,92.617,2.46,138.644,2.302c0.811,6.754,1.565,13.373,1.732,19.608
		c0.054,2.017,1.659,3.764,3.738,3.738c4.86-0.061,9.651,0.169,14.424-0.809c2.678-0.548,2.859-4.506,0.61-5.604
		c0.079-0.161,0.176-0.309,0.219-0.496C187.048,150.814,186.917,136.954,187.767,123.873z M176.613,26.811
		c-0.92-0.4-1.832-0.792-2.671-1.211c-0.713-0.356-1.424-0.714-2.135-1.073c1.852-0.049,3.699-0.133,5.552-0.163
		C177.086,25.17,176.854,25.993,176.613,26.811z M152.715,84.11c-0.281,0.018-0.562,0.024-0.843,0.041
		c-3.774-2.062-7.953-3.437-11.691-5.709c-4.229-2.572-8.238-5.486-12.488-8.028c-0.098-0.058-0.189-0.072-0.283-0.102
		c0.669-0.893,1.327-1.793,1.993-2.688c7.208,5.15,14.888,11.213,23.35,14.262C152.396,82.639,152.435,83.425,152.715,84.11z
		 M119.57,80.578c1.162-1.472,2.299-2.962,3.44-4.447c1.526,2.19,4.962,4.152,6.659,5.409c1.303,0.965,2.875,2.207,4.558,3.326
		c-2.062,0.049-4.122,0.118-6.185,0.149c-1.085-0.514-2.22-0.951-3.296-1.423C122.948,82.803,121.184,81.764,119.57,80.578z
		 M122.396,85.072c-2.151,0.011-4.303,0.078-6.453,0.066c0.774-0.948,1.52-1.916,2.283-2.871
		C119.544,83.305,120.938,84.241,122.396,85.072z M132.12,79.262c-1.798-1.128-3.516-2.372-5.261-3.58
		c-0.734-0.508-1.436-1.189-2.21-1.67c0.477-0.628,0.938-1.266,1.414-1.896c0.091,0.154,0.213,0.298,0.389,0.418
		c4.569,3.125,8.896,6.584,13.469,9.704c1.102,0.751,2.31,1.562,3.574,2.325c-0.394,0.016-0.785,0.043-1.178,0.058
		C138.98,82.713,135.409,81.326,132.12,79.262z M131.129,65.295c0.896-1.208,1.787-2.416,2.68-3.625
		c4.862,2.904,9.776,5.744,14.716,8.51c3.066,1.717,6.265,3.686,9.681,4.7c-0.854,1.18-1.729,2.344-2.643,3.475
		C146.988,74.596,139.091,70.269,131.129,65.295z M148.28,66.487c-4.328-2.278-8.539-4.78-12.973-6.846
		c1.434-1.941,2.874-3.876,4.314-5.812c3.402,3.321,7.471,5.831,11.759,7.912c3.585,1.741,8.785,4.467,12.881,3.685
		c-1.294,2.215-2.627,4.411-4.055,6.547C156.375,69.926,152.114,68.504,148.28,66.487z M155.984,56.586
		c3.145,1.986,6.516,4.444,10.164,5.545c-0.03,0.055-0.06,0.125-0.09,0.179c-0.14,0.254-0.294,0.502-0.436,0.755
		c-0.133-0.359-0.347-0.686-0.7-0.9c-3.035-1.842-7.425-2.119-10.807-3.319c-4.615-1.638-9.104-4.041-12.803-7.297
		c0.547-0.731,1.103-1.455,1.652-2.184C147.556,51.332,151.771,53.926,155.984,56.586z M144.724,47.043
		c1.2-1.579,2.449-3.122,3.667-4.688c4.359,2.858,8.682,5.772,13.146,8.467c1.999,1.207,4.979,3.24,7.945,4.36
		c-0.473,0.963-0.93,1.934-1.366,2.89c-3.656-2.153-7.916-3.68-11.626-5.706C152.673,50.283,148.861,48.361,144.724,47.043z
		 M170.832,67.425c0.646-1.037,1.442-2.195,2.275-3.411c0.367,6.11,1.044,12.167,1.967,17.996
		c-5.478,0.721-10.956,1.262-16.436,1.707C163.35,78.786,167.221,73.218,170.832,67.425z M162.464,24.802
		c0.84-0.034,1.682-0.043,2.521-0.074c2.323,1.427,4.62,2.898,6.886,4.417c1.154,0.773,2.309,1.625,3.501,2.394
		c-0.036,0.16-0.082,0.317-0.117,0.477c-3.512-2.937-8.422-5.486-13.064-6.538C162.303,25.253,162.397,25.027,162.464,24.802z
		 M159.485,28.796c5.107,2.213,9.489,5.839,14.646,7.886c0.072,0.028,0.137,0.018,0.207,0.038c-0.262,1.591-0.494,3.192-0.682,4.804
		c-2.413-1.174-5.257-1.983-7.299-3.041c-3.466-1.796-6.81-3.831-10.127-5.901C157.294,31.305,158.397,30.056,159.485,28.796z
		 M163.906,42.678c2.23,1.423,5.928,4.068,9.236,4.621c-0.048,0.757-0.13,1.507-0.164,2.266c-0.34,0.386-0.643,0.828-0.952,1.26
		c-0.068-0.02-0.125-0.036-0.194-0.056c-3.388-1.015-6.581-2.848-9.675-4.525c-3.921-2.125-7.755-4.403-11.61-6.645
		c1.071-1.352,2.167-2.686,3.254-4.027C157.088,38.054,160.427,40.459,163.906,42.678z M117.575,27.382
		c11.653-0.702,23.299-1.479,34.955-2.089c-17.399,16.795-29.385,40.066-43.498,59.32c-0.105,0.144-0.125,0.293-0.195,0.44
		c-9.723-0.134-19.449-0.4-29.178-0.691c1.093-1.607,1.8-3.607,2.642-5.269c3.042-6,6.768-11.715,10.42-17.354
		c7.134-11.013,14.247-23.469,23.817-32.587C117.12,28.6,117.408,27.994,117.575,27.382z M39.87,76.242
		c0.902-0.901,1.827-1.798,2.741-2.696c2.75,2.612,5.503,5.217,8.427,7.639c0.951,0.788,2.022,1.691,3.161,2.548
		c-1.155-0.022-2.309-0.063-3.464-0.083c-0.92-1.4-3.045-2.623-3.906-3.176C44.543,79.007,42.202,77.633,39.87,76.242z
		 M43.772,83.589c-3.634-0.035-7.268-0.114-10.903-0.096c1.413-1.535,2.874-3.053,4.352-4.567c1.877,1.352,3.761,2.695,5.655,4.024
		C43.176,83.161,43.474,83.375,43.772,83.589z M53.586,77.883c-3.012-2.021-5.829-4.327-8.638-6.635
		c0.895-0.872,1.797-1.747,2.697-2.62c3.931,3.451,8.037,6.661,12.356,9.637c2.759,1.901,5.859,4.118,9.109,5.823
		c-1.959-0.043-3.917-0.093-5.875-0.14c-0.031-0.039-0.027-0.085-0.061-0.123C60.796,81.198,56.566,79.883,53.586,77.883z
		 M63.897,75.669c-4.872-2.812-9.587-5.791-14.067-9.163c1.277-1.242,2.551-2.491,3.821-3.743c3.851,2.302,7.518,4.856,11.121,7.552
		c3.346,2.505,6.933,5.716,10.926,7.427c-0.391,1.506-0.652,2.912-0.646,4.102C71.645,79.398,67.411,77.696,63.897,75.669z
		 M68.303,67.823c-3.931-2.707-7.828-5.403-11.96-7.754c1.284-1.291,2.554-2.592,3.81-3.903c6.348,3.975,12.05,8.848,18.485,12.747
		c0.143,0.086,0.286,0.122,0.43,0.157c-0.734,1.51-1.41,2.983-1.964,4.37C74.273,71.428,71.099,69.748,68.303,67.823z
		 M62.634,53.526c1.014-1.094,1.973-2.221,2.955-3.335c3.297,2.635,6.62,5.237,10.015,7.748c1.983,1.466,4.355,3.494,6.89,4.735
		c-0.718,1.259-1.444,2.523-2.083,3.74C75.025,61.423,69.092,57.014,62.634,53.526z M67.986,47.46
		c0.862-1.028,1.683-2.081,2.509-3.13c2.415,1.68,4.862,3.314,7.388,4.838c2.962,1.787,6.59,4.149,10.169,4.45
		c-1.076,1.656-2.132,3.315-3.138,4.963C78.902,55.743,73.457,51.411,67.986,47.46z M106.905,27.981
		c-0.619,0.735-1.294,1.562-1.994,2.429c-0.952-0.846-2.065-1.544-3.205-2.196C103.439,28.13,105.173,28.072,106.905,27.981z
		 M91.893,28.652c0.494-0.017,0.988-0.048,1.482-0.066c1.131,0.633,2.242,1.308,3.337,2.031c1.759,1.162,3.283,2.67,5.007,3.839
		c-0.596,0.771-1.204,1.564-1.822,2.382c0.154-0.628,0.044-1.31-0.529-1.848c-2.36-2.215-6.5-2.839-9.384-4.327
		c-1.123-0.579-2.185-1.279-3.272-1.932C88.436,28.729,90.163,28.71,91.893,28.652z M80.151,29.434
		c2.383,1.902,4.828,3.72,7.418,5.354c2.786,1.758,7.452,4.938,10.878,3.678c0.164-0.06,0.282-0.189,0.426-0.282
		c-1.206,1.612-2.435,3.278-3.685,5.019c-2.954-1.749-6.3-2.957-9.31-4.636c-2.753-1.536-5.445-3.168-8.208-4.678
		C78.545,32.431,79.372,30.945,80.151,29.434z M76.23,36.225c5.042,3.796,10.703,8.599,16.596,10.321
		c-0.94,1.349-1.879,2.712-2.805,4.093c-2.665-2.491-6.661-3.667-9.882-5.33c-2.473-1.277-4.866-2.703-7.225-4.183
		C74.081,39.527,75.164,37.881,76.23,36.225z M32.465,24.418c-0.841,0.909-1.607,1.909-2.381,2.899
		c-1.673-1.631-3.995-2.591-6.115-3.555C26.803,23.957,29.637,24.158,32.465,24.418z M14.84,23.335
		c2.039,1.07,4.085,2.124,6.12,3.202c2.248,1.191,4.385,2.977,6.709,4.088c-0.514,0.756-1.05,1.49-1.542,2.265
		c-0.007-0.01-0.001-0.02-0.009-0.029c-2.009-2.638-5.229-4.075-8.094-5.655c-2.43-1.34-5.071-2.496-7.767-3.351
		c0-0.013,0-0.025,0-0.038c0-0.245-0.095-0.423-0.131-0.645C11.702,23.183,13.269,23.286,14.84,23.335z M24.906,34.824
		c-0.664,1.097-1.315,2.201-1.947,3.308c-2.145-1.733-5.103-2.274-7.622-3.375c-1.793-0.784-3.49-1.721-5.159-2.713
		c0.021-1.823,0.036-3.646,0.053-5.469c2.099,1.028,4.156,2.127,6.163,3.417c2.614,1.681,5.16,4.069,8.196,4.854
		C24.695,34.874,24.8,34.826,24.906,34.824z M10.143,35.681c0.797,0.51,1.579,1.043,2.398,1.521c2.498,1.46,5.799,3.564,8.818,3.728
		c-0.834,1.503-1.659,3.004-2.462,4.45c-2.808-1.83-5.858-3.382-8.799-5.06C10.119,38.774,10.122,37.228,10.143,35.681z
		 M10.066,43.611c2.303,1.789,4.709,3.468,7.191,4.836c-0.793,1.475-1.599,2.94-2.363,4.441c-0.83-0.644-1.758-1.211-2.533-1.863
		c-0.842-0.709-1.614-1.499-2.344-2.326C10.047,47.002,10.039,45.307,10.066,43.611z M9.945,52.076
		c0.057,0.065,0.108,0.132,0.165,0.197c0.988,1.11,2.13,2.429,3.458,3.262c-1.405,2.894-2.725,5.834-3.884,8.825
		C9.792,60.266,9.862,56.171,9.945,52.076z M17.238,166.601c0.04,0.294,0.155,0.539,0.283,0.772
		c-3.905,0.202-7.757-1.131-11.716-0.649c3.838-9.416,3.353-20.667,3.469-30.624c0.176-15.078-0.705-30.263-1.934-45.306
		c0.376-0.231,0.724-0.509,0.99-0.889c0.033,0.003,0.054,0.02,0.087,0.022c3.067,0.197,6.139,0.401,9.212,0.605
		C14.772,114.671,13.948,142.652,17.238,166.601z M9.112,84.114c0.102-2.701,0.145-5.409,0.235-8.112
		c0.884,0.095,1.778-0.263,2.27-1.281c4.163-8.624,8.119-17.214,13.041-25.45c4.833-8.087,11.523-15.455,15.667-23.858
		c0.037-0.075,0.035-0.146,0.067-0.221c10.479,1.1,20.948,2.365,31.476,3.05C58.409,48.372,38.67,63.125,25.684,83.579
		C20.161,83.675,14.637,83.828,9.112,84.114z M24.902,140.019c0.125-5.292,0.159-10.617,0.024-15.947
		c45.347,3.362,90.688,6.317,136.188,6.565c0.194,0.001,0.332-0.079,0.511-0.101c0.244,3.045,0.565,6.095,0.911,9.133
		C116.933,139.175,70.332,135.826,24.902,140.019z M161.211,123.208c-0.037-0.001-0.061-0.021-0.098-0.021
		c-45.479-0.16-90.808-3.974-136.287-2.984c-0.366-10.045-1.146-19.979-2.245-29.339c47.891,3.207,96.363,6.619,144.135,1.624
		C161.984,101.843,160.881,112.385,161.211,123.208z M179.929,123.873c-0.744,12.938-3.475,26.561-1.049,39.404
		c-2.113-0.165-4.229-0.208-6.361-0.213c-0.928-23.808-6.798-46.87-1.979-70.713c0.018-0.09,0-0.17,0.005-0.257
		c3.311-0.378,6.617-0.796,9.92-1.261C180.014,101.812,180.56,112.892,179.929,123.873z"/>
</g>
<g>
</g>
<g>
</g>
<g>
</g>
<g>
</g>
<g>
</g>
<g>
</g>
<g>
</g>
<g>
</g>
<g>
</g>
<g>
</g>
<g>
</g>
<g>
</g>
<g>
</g>
<g>
</g>
<g>
</g>
</svg>
