<svg width="518" height="630" viewBox="0 0 518 630" fill="none" xmlns="http://www.w3.org/2000/svg">
<rect width="518" height="630" fill="white"/>
<path d="M65.1636 155.283C66.5186 64.5458 147.989 -1.60497 238.849 1.98017C252.824 2.5316 266.974 2.78765 281.268 2.68359C332.487 2.31068 383.544 21.0693 421.593 52.7191C459.635 84.3635 484.628 128.849 483.865 179.944L479.625 463.869C478.345 549.596 405.412 613.892 320.289 603.741C307.134 602.173 294.212 600.794 281.397 599.736C227.68 595.304 172.247 573.642 130.463 539.63C88.6833 505.622 60.6233 459.336 61.4252 405.635L65.1636 155.283Z" fill="#7F5E4D" stroke="#5B5959" stroke-width="2"/>
<line y1="-0.5" x2="73.9271" y2="-0.5" transform="matrix(-0.748629 0.662989 0.602087 0.798431 174.323 500.887)" stroke="black"/>
<ellipse cx="347.396" cy="219.971" rx="23.9583" ry="45.4364" fill="#403E3D"/>
<ellipse cx="446.823" cy="219.971" rx="20.3646" ry="45.4364" fill="#403E3D"/>
<path d="M102.521 327.72C102.521 361.952 79.5978 389.533 51.5104 389.533C23.423 389.533 0.5 361.952 0.5 327.72C0.5 293.488 23.423 265.907 51.5104 265.907C79.5978 265.907 102.521 293.488 102.521 327.72Z" fill="#7F5E4D" stroke="black"/>
<rect width="89.0611" height="22.9466" transform="matrix(0.923297 0.384086 -0.333889 0.942612 435.77 118.698)" fill="black"/>
<rect width="88.5285" height="23.0152" transform="matrix(0.965381 -0.260843 0.224214 0.97454 285.89 141.79)" fill="black"/>
<path d="M404.896 403.014H428.195C445.76 403.014 460 388.775 460 371.209V366.956C460 351.739 447.665 339.404 432.448 339.404V339.404C417.231 339.404 404.896 327.068 404.896 311.852V179.727" stroke="black"/>
<path d="M349.792 471.818H448.021C445.821 509.299 437.823 525.415 390.521 530.236C358.29 525.69 341.161 522.088 349.792 471.818Z" fill="#E4E4E4" stroke="black"/>
<line y1="-3" x2="72.7015" y2="-3" transform="matrix(0.982228 0.18769 -0.160596 0.98702 295.034 279.752)" stroke="black" stroke-width="6"/>
<line y1="-3" x2="72.7172" y2="-3" transform="matrix(0.980752 -0.195259 0.167141 0.985933 426.737 297.172)" stroke="black" stroke-width="6"/>
<path d="M69.4792 296.564C18.8542 308.484 23.0729 343.072 31.5104 358.876" stroke="black" stroke-width="0.75"/>
<path d="M362.969 545.815C378.14 555.22 387.612 558.814 409.688 556.2C428.936 550.305 434.996 544.068 445.625 532.833" stroke="black"/>
<line y1="-0.5" x2="30.8444" y2="-0.5" transform="matrix(-0.562271 0.826953 0.781435 0.623987 119.792 265.407)" stroke="black"/>
<line y1="-0.5" x2="38.8615" y2="-0.5" transform="matrix(-0.678156 0.734918 -0.678156 -0.734918 129.375 278.389)" stroke="black"/>
<line y1="-0.5" x2="40.8076" y2="-0.5" transform="matrix(-0.645815 0.763494 -0.709447 -0.704759 129.375 296.564)" stroke="black"/>
<line y1="-0.5" x2="59.1937" y2="-0.5" transform="matrix(-0.789252 0.61407 -0.552292 -0.833651 132.969 366.665)" stroke="black"/>
<line y1="-0.5" x2="65.2462" y2="-0.5" transform="matrix(-0.771117 0.636693 -0.575141 -0.818055 105.459 421.244)" stroke="black"/>
<line y1="-0.5" x2="54.9293" y2="-0.5" transform="matrix(-0.65425 0.756278 -0.701484 -0.712685 165.313 415.996)" stroke="black"/>
<line y1="-0.5" x2="54.9293" y2="-0.5" transform="matrix(-0.65425 0.756278 -0.701484 -0.712685 97.0913 452.228)" stroke="black"/>
<path d="M477.288 230.43L443.474 220.376L471.809 202.494L477.288 230.43Z" fill="#7F5E4D"/>
<path d="M376.663 227.834L342.849 217.779L371.184 199.898L376.663 227.834Z" fill="#7F5E4D"/>
<line y1="-0.5" x2="73.9271" y2="-0.5" transform="matrix(-0.748629 0.662989 0.602087 0.798431 138.784 481.015)" stroke="black"/>
<line y1="-0.5" x2="46.8045" y2="-0.5" transform="matrix(-0.460693 0.88756 -0.853863 -0.520498 182.083 530.236)" stroke="black"/>
<line y1="-0.5" x2="57.0973" y2="-0.5" transform="matrix(-0.503527 0.86398 -0.825218 -0.564814 225.208 543.218)" stroke="black"/>
<line y1="-0.5" x2="88.4103" y2="-0.5" transform="matrix(-0.56908 0.822282 -0.77601 -0.630721 253.958 556.2)" stroke="black"/>
<line y1="-0.5" x2="53.2911" y2="-0.5" transform="matrix(-0.224787 0.974408 -0.965204 -0.261498 285.104 566.585)" stroke="black"/>
<line y1="-0.5" x2="48.3696" y2="-0.5" transform="matrix(-0.601482 0.798886 0.749147 0.662404 131.771 327.72)" stroke="black"/>
<line y1="-0.5" x2="47.5628" y2="-0.5" transform="matrix(-0.75558 0.655057 -0.593913 -0.804529 165.313 377.051)" stroke="black"/>
<line y1="-0.5" x2="45.688" y2="-0.5" transform="matrix(-0.895561 0.444939 0.389615 0.920978 196.458 426.382)" stroke="black"/>
<line y1="-0.5" x2="46.8603" y2="-0.5" transform="matrix(-0.441803 0.897112 -0.865646 -0.500657 196.458 447.153)" stroke="black"/>
<line y1="-0.5" x2="50.5353" y2="-0.5" transform="matrix(-0.371678 0.928362 -0.90496 -0.425497 210.833 470.52)" stroke="black"/>
<line y1="-0.5" x2="98.8734" y2="-0.5" transform="matrix(-0.682318 0.731056 0.673977 0.738752 253.958 493.887)" stroke="black"/>
<line y1="-0.5" x2="103.056" y2="-0.5" transform="matrix(-0.185983 0.982553 -0.976172 -0.217 280.313 512.062)" stroke="black"/>
<line y1="-0.5" x2="76.4754" y2="-0.5" transform="matrix(-0.469922 0.882708 -0.847918 -0.530128 261.146 512.062)" stroke="black"/>
<line y1="-0.5" x2="71.6309" y2="-0.5" transform="matrix(-0.334469 0.942407 -0.923031 -0.384726 323.438 551.007)" stroke="black"/>
<line y1="-0.5" x2="66.7598" y2="-0.5" transform="matrix(-0.358873 0.933386 -0.911395 -0.411533 347.396 566.585)" stroke="black"/>
<line y1="-0.5" x2="49.5638" y2="-0.5" transform="matrix(-0.0726573 0.997357 -0.99636 -0.0852438 366.563 579.567)" stroke="black"/>
<line x1="388.625" y1="571.778" x2="388.625" y2="618.513" stroke="black"/>
<line y1="-0.5" x2="13.0562" y2="-0.5" transform="matrix(-0.917507 0.397721 -0.346271 -0.938134 335.417 517.255)" stroke="black"/>
<line y1="-0.5" x2="23.9522" y2="-0.5" transform="matrix(0.999633 -0.0270826 0.023063 0.999734 311.458 501.676)" stroke="black"/>
<line x1="311.458" y1="477.809" x2="330.625" y2="477.809" stroke="black"/>
<line y1="-0.5" x2="15.8543" y2="-0.5" transform="matrix(0.75558 0.655057 -0.593913 0.804529 311.458 447.153)" stroke="black"/>
<line y1="-0.5" x2="11.3975" y2="-0.5" transform="matrix(0.454689 0.89065 -0.857663 0.514212 335.417 447.153)" stroke="black"/>
<line y1="-0.5" x2="10.3766" y2="-0.5" transform="matrix(0.0354745 0.999371 -0.999132 0.0416515 376.146 447.153)" stroke="black"/>
<line x1="388.625" y1="436.767" x2="388.625" y2="452.345" stroke="black"/>
<line y1="-0.5" x2="20.7557" y2="-0.5" transform="matrix(-0.0329195 0.999458 0.999253 0.0386529 359.375 436.767)" stroke="black"/>
<line y1="-0.5" x2="18.1619" y2="-0.5" transform="matrix(-0.032131 0.999484 0.999288 0.0377274 404.896 444.556)" stroke="black"/>
<line y1="-0.5" x2="17.1557" y2="-0.5" transform="matrix(-0.41943 0.907787 0.878942 0.476929 426.458 447.153)" stroke="black"/>
<line y1="-0.5" x2="15.5669" y2="-0.5" transform="matrix(0.0327827 0.999462 -0.999259 0.0384923 440.833 447.153)" stroke="black"/>
<line y1="-0.5" x2="19.1562" y2="-0.5" transform="matrix(-0.419039 0.907968 0.879168 0.476512 471.188 447.153)" stroke="black"/>
<line y1="-0.5" x2="23.1972" y2="-0.5" transform="matrix(-0.678156 0.734918 -0.678157 -0.734917 481.771 462.731)" stroke="black"/>
<line y1="-0.5" x2="25.9547" y2="-0.5" transform="matrix(0.999785 0.0207441 0.0176646 -0.999844 474.583 488.695)" stroke="black"/>
<line y1="-0.5" x2="23.8071" y2="-0.5" transform="matrix(0.87655 0.481311 0.423545 -0.905875 472.188 501.676)" stroke="black"/>
<line y1="-0.5" x2="28.1752" y2="-0.5" transform="matrix(0.48771 0.873006 -0.83611 0.548562 465 522.447)" stroke="black"/>
<line x1="476.542" y1="451.845" x2="488.125" y2="451.845" stroke="black"/>
<line y1="-0.5" x2="27.1856" y2="-0.5" transform="matrix(0.952848 -0.303448 -0.261719 -0.965144 469.056 440.589)" stroke="black"/>
<line y1="-0.5" x2="26.5114" y2="-0.5" transform="matrix(0.978197 -0.20768 -0.177897 -0.984049 476.542 426.382)" stroke="black"/>
<line y1="-0.5" x2="19.5595" y2="-0.5" transform="matrix(0.95394 0.299997 0.258667 -0.965967 476.542 403.015)" stroke="black"/>
</svg>
