<?xml version="1.0" encoding="iso-8859-1"?>
<!-- Generator: Adobe Illustrator 16.0.0, SVG Export Plug-In . SVG Version: 6.00 Build 0)  -->
<!DOCTYPE svg PUBLIC "-//W3C//DTD SVG 1.1//EN" "http://www.w3.org/Graphics/SVG/1.1/DTD/svg11.dtd">
<svg version="1.1" id="Capa_1" xmlns="http://www.w3.org/2000/svg" xmlns:xlink="http://www.w3.org/1999/xlink" x="0px" y="0px"
	 width="185.3px" height="185.3px" viewBox="0 0 185.3 185.3" style="enable-background:new 0 0 185.3 185.3;" xml:space="preserve"
	>
<g>
	<g>
		<path d="M158.115,9.387c-0.097-1.349-0.885-2.195-1.854-2.503c0.364-1.574-0.408-3.317-2.38-4.128
			C140.6-2.711,118.944,1.49,104.819,2.381c-26.328,1.66-52.311-4.11-78.215,2.986c-0.767,0.21-1.308,0.689-1.651,1.279
			c-1.233,0.873-2.015,2.617-1.252,4.186c9.96,20.487,7.142,46.099,7.109,68.229c-0.044,30.074,1.156,60.214,1.368,90.302
			c0.011,1.505,0.604,2.627,1.482,3.374c-0.257,0.326-0.387,0.743-0.257,1.174c4.22,14.063,37.632,11.193,48.32,11.066
			c14.153-0.168,28.288-1.441,42.382-2.632c9.319-0.787,21.087,0.481,29.638-3.555c0.326-0.153,0.597-0.378,0.836-0.634
			c2.456,0.072,5.07-1.455,5.275-4.609C163.386,118.955,162.048,63.89,158.115,9.387z M77.056,175.239
			c-0.234-1.16-0.459-2.325-0.666-3.491c1.396,0.913,2.783,1.841,4.177,2.76c0.31,0.204,0.637,0.42,0.953,0.631
			C80.032,175.167,78.544,175.226,77.056,175.239z M98.474,174.412c-0.061-0.053-0.095-0.114-0.165-0.163
			c-6.88-4.802-13.333-10.374-20.003-15.48c-1.23-0.943-2.836,1.151-1.655,2.145c3.774,3.172,7.502,6.397,11.268,9.578
			c1.615,1.364,3.26,2.896,5.012,4.232c-1.673,0.086-3.345,0.195-5.018,0.26c-1.966-0.979-3.961-1.914-5.862-3.014
			c-2.053-1.189-4.088-2.397-6.144-3.568c-0.374-3.109-0.462-6.226,0.225-9.328c0.403-1.821,1.279-3.229,2.428-4.356
			c4.343,4.371,9.023,8.424,13.841,12.254c3.081,2.447,7.134,6.492,11.372,6.479c2.219-0.007,2.755-3.397,0.529-3.914
			c-3.551-0.822-7.5-4.443-10.388-6.521c-4.379-3.153-8.612-6.567-12.618-10.199c1.116-0.568,2.346-0.967,3.599-1.301
			c0.02,0.02,0.024,0.043,0.046,0.062c4.991,4.612,9.85,9.36,15.049,13.74c2.442,2.057,5.272,4.665,8.347,6.295
			c0.075,0.536,0.156,1.071,0.296,1.596C104.984,173.74,101.557,174.183,98.474,174.412z M107.15,160.021
			c-3.457-3.285-6.864-6.613-10.561-9.632c-0.086-0.07-0.18-0.094-0.269-0.145c5.177,0.017,10.554,1.115,11.844,6.572
			c0.346,1.464,0.436,2.959,0.411,4.465C108.074,160.857,107.587,160.437,107.15,160.021z M94.214,152.763
			c3.573,3.154,6.868,6.591,10.156,10.036c0.495,0.519,1.007,1.099,1.53,1.691c-1.242-0.715-2.456-1.443-3.542-2.245
			c-4.815-3.553-9.279-7.582-13.829-11.471c0.972-0.133,1.931-0.238,2.841-0.306c0.979-0.073,2.043-0.135,3.129-0.177
			C93.674,150.818,93.26,151.919,94.214,152.763z M150.351,171.333c-9.612-2.651-22.467-1.014-34.284,0.757
			c1.784-6.608,0.839-16.011-1.588-21.604c-3.88-8.94-17.134-8.536-24.964-7.868c-7.883,0.673-16.241,3.562-19.566,11.333
			c-2.831,6.615-1.433,14.437,1.08,21.303c-3.248-0.031-6.497-0.105-9.748-0.239c-6.23-0.258-13.747-3.041-20.443-3.424
			c0.351-0.625,0.603-1.339,0.609-2.228c0.227-33.461-1.292-66.901-1.059-100.344c0.132-18.923,1.446-41.458-9.144-58.063
			c24.52-1.775,49.023,1.512,73.577,1.046c13.476-0.256,33.572,2.527,46.825-1.771c-7.519,13.794-1.205,41.304-0.311,55.24
			C153.577,100.414,152.412,136.353,150.351,171.333z"/>
		<path d="M69.208,100.835c-8.51-1.48-18.813-2.422-24.327,5.624c-2.188,3.194-2.532,7.564-2.607,11.304
			c-0.092,4.59-0.159,11.565,2.371,15.472c1.423,2.197,4.806,1.877,5.564-0.728c0.051-0.173,0.038-0.359,0.078-0.534
			c5.258,0.266,10.758,0.114,15.895,1.152c2.334,0.473,4.577-1.027,4.62-3.519c0.145-8.384,1.081-16.726,1.19-25.11
			C72.013,102.932,70.833,101.119,69.208,100.835z M64.324,107.701c-0.057,2.097-0.164,4.192-0.253,6.288
			c-0.614-0.369-1.242-0.712-1.837-1.113c-2.445-1.648-4.765-3.44-7.268-5.001C57.788,107.007,61.346,107.268,64.324,107.701z
			 M50.483,127.229c-0.203-2.057-0.596-4.134-0.717-6.099c-0.019-0.307-0.022-0.612-0.035-0.92c2.165,2.554,4.594,4.834,7.291,6.768
			C54.832,127.073,52.64,127.124,50.483,127.229z M63.574,126.462c-0.679,0.089-1.376,0.1-2.061,0.162
			c-4.193-2.622-8.029-5.39-11.355-9.321c-0.136-0.161-0.284-0.254-0.435-0.312c0.022-0.46,0.083-0.916,0.129-1.373
			c2.061,1.693,4.136,3.368,6.288,4.948c2.152,1.581,4.764,3.633,7.486,4.572C63.613,125.581,63.585,126.022,63.574,126.462z
			 M58.52,118.907c-2.867-1.802-5.549-3.899-8.223-5.978c0.055-0.236,0.083-0.476,0.148-0.709c0.354-1.267,1.016-2.193,1.843-2.917
			c0.107,0.234,0.261,0.458,0.529,0.632c2.888,1.877,5.583,4.042,8.249,6.22c0.915,0.748,1.856,1.503,2.828,2.21
			c-0.047,1.057-0.084,2.113-0.127,3.17C62.008,120.682,60.157,119.936,58.52,118.907z"/>
		<path d="M110.731,103.441c-0.423-1.871-2.106-2.685-3.819-2.908c-6.288-0.824-12.528-0.045-18.833,0.074
			c-1.672,0.032-3.363,1.155-3.748,2.853c-1.698,7.499-2.05,15.112-2.106,22.756c-2.218,0.351-2.183,3.854-0.014,4.651
			c0.013,0.005,0.026,0.008,0.039,0.012c0.228,3.809,5.109,4.394,6.862,1.808c6.195,1.131,12.67,1.213,18.846,1.813
			c2.115,0.206,3.823-1.908,3.852-3.851C111.943,121.507,112.769,112.447,110.731,103.441z M103.56,108.135
			c0.399,2.55,0.56,5.117,0.637,7.691c-0.801-0.575-1.582-1.14-2.28-1.712c-2.348-1.924-4.593-3.966-6.848-5.997
			C97.903,108.002,100.738,107.928,103.56,108.135z M89.809,126.784c0.033-2.985,0.127-5.964,0.336-8.931
			c1.036,1.568,2.317,3.02,3.359,4.243c1.309,1.534,3.214,3.552,5.315,5.005C95.813,127.095,92.814,127.011,89.809,126.784z
			 M104.168,126.089c-1.021-0.729-2.163-1.243-3.269-1.876c-1.705-0.973-3.199-2.266-4.623-3.603
			c-2.315-2.174-3.735-4.994-5.698-7.362c0.031-0.255,0.082-0.508,0.115-0.763c3.63,4.685,8.079,10.528,13.484,13.104
			C104.175,125.756,104.172,125.922,104.168,126.089z M99.833,117.999c-3.175-2.689-5.886-5.905-8.608-9.04
			c0.023-0.129,0.04-0.258,0.058-0.387c2.678,2.717,5.426,5.361,8.254,7.924c1.494,1.354,3.044,3.026,4.721,4.458
			c-0.001,0.075,0.004,0.149,0.003,0.224C102.742,120.187,101.231,119.183,99.833,117.999z"/>
		<path d="M146.678,101.709c-8.661-1.657-19.421-2.265-23.65,7.201c-1.605,3.593-1.986,7.546-2.402,11.418
			c-0.358,3.348-2.062,8.483-1.286,12.099c-0.12,0.94,0.263,1.941,1.205,2.406c0.949,0.91,2.367,1.195,3.573,0.499
			c0.038-0.021,0.061-0.063,0.098-0.087c6.51,0.366,12.937,0.771,19.327,2.289c2.51,0.597,4.831-1.167,4.918-3.746
			c0.318-9.417,1.071-18.827,1.133-28.249C149.606,103.881,148.386,102.037,146.678,101.709z M141.551,108.865
			c-0.037,1.222-0.103,2.444-0.15,3.666c-0.38-0.294-0.77-0.588-1.108-0.886c-1.101-0.968-2.146-1.998-3.22-2.997
			C138.461,108.559,139.959,108.645,141.551,108.865z M127.408,130.149c0.439-1.619,0.663-3.427,0.83-5.238
			c2.029,1.903,4.188,3.734,6.481,5.105C132.283,130.056,129.844,130.046,127.408,130.149z M140.755,129.125
			c-2.566-1.592-5.4-2.694-7.939-4.401c-1.477-0.992-2.896-2.065-4.305-3.154c0.123-1.981,0.23-3.857,0.478-5.27
			c0.05-0.286,0.142-0.501,0.203-0.768c1.728,1.875,3.442,3.761,5.225,5.586c1.844,1.889,3.997,4.127,6.427,5.606
			C140.82,127.525,140.77,128.325,140.755,129.125z M137.028,118.505c-2.288-1.986-4.439-4.125-6.594-6.258
			c0.605-1.003,1.363-1.742,2.228-2.299c1.529,1.58,3.042,3.176,4.615,4.713c1.177,1.151,2.45,2.607,3.884,3.702
			c-0.048,1.058-0.084,2.116-0.131,3.174C139.66,120.569,138.288,119.599,137.028,118.505z"/>
		<path d="M70.992,64.735c-0.215-1.609-1.001-3.36-2.818-3.702c-7.039-1.321-16.738-2.883-21.816,3.637
			c-4.738,6.084-4.544,16.814-3.541,24.022c0.398,2.863,4.614,3.279,6.215,1.311c6.069,2.185,12.815,3.293,19.167,3.651
			c2.108,0.118,3.767-1.824,3.81-3.81C72.188,81.482,72.103,73.039,70.992,64.735z M63.62,67.95
			c0.148,1.587,0.244,3.176,0.327,4.766c-3.133-1.559-6.248-3.16-9.338-4.823C57.232,66.992,60.819,67.427,63.62,67.95z
			 M64.181,78.87c-1.477-1.075-2.99-2.107-4.502-3.152c-2.656-1.836-5.288-3.709-7.99-5.477c0.065-0.128,0.169-0.212,0.243-0.331
			c3.886,2.509,7.906,5.132,12.18,6.95C64.132,77.53,64.164,78.199,64.181,78.87z M49.863,86.511
			c0.172-2.372,0.15-4.768,0.223-7.149c1.85,1.568,3.717,3.115,5.652,4.584c1.003,0.762,2.336,1.824,3.776,2.725
			C56.315,86.861,53.129,86.914,49.863,86.511z M63.228,84.055c-2.034-0.707-3.929-1.967-5.734-3.113
			c-2.469-1.567-4.811-3.329-7.144-5.098c0.083-0.766,0.196-1.529,0.335-2.289c2.546,1.79,5.042,3.661,7.471,5.59
			c1.897,1.506,3.86,3.389,6.126,4.431c0.004,0.295,0.015,0.59,0.019,0.885C63.957,84.327,63.623,84.193,63.228,84.055z"/>
		<path d="M72.498,37.352c0.299-0.517,0.3-1.237-0.088-1.786c-0.232-4.225-0.482-8.45-0.525-12.681
			c-0.023-2.207-1.677-3.422-3.685-3.685c-6.379-0.833-12.469,0.15-18.753,1.224c-1.714,0.293-2.479,2.004-2.67,3.507
			c-1.017,8.001-2.447,19.133,0.969,26.67c0.809,1.784,3.362,1.907,4.754,0.764c5.254,0.919,10.816,0.452,15.799,2.16
			c2.253,0.772,4.462-1.239,4.511-3.437C72.905,45.838,72.722,41.595,72.498,37.352z M64.591,26.257
			c0.034,1.463,0.12,2.925,0.176,4.388c-0.51-0.293-1.023-0.577-1.527-0.882c-1.723-1.044-3.407-2.146-5.086-3.256
			C60.291,26.289,62.432,26.156,64.591,26.257z M65.032,37.24c-1.135-0.648-2.27-1.296-3.332-2.018
			c-2.868-1.951-5.493-4.232-8.079-6.544c0.046-0.538,0.071-1.078,0.125-1.616c0.152-0.024,0.303-0.034,0.455-0.057
			c3.481,2.594,6.975,5.683,10.743,8.045C64.979,35.78,64.995,36.51,65.032,37.24z M53.614,47.365
			c0.094-2.145-0.053-4.317-0.195-6.484c1.263,0.947,2.554,1.859,3.87,2.759c1.802,1.233,3.696,2.694,5.673,3.95
			C59.884,47.791,56.677,47.547,53.614,47.365z M59.894,40.716c-2.199-1.32-4.379-2.634-6.648-3.801
			c-0.012-1.806,0.052-3.611,0.157-5.413c2.1,2.083,4.262,4.098,6.538,6.001c1.624,1.357,3.403,2.839,5.311,3.991
			c0.041,0.78,0.081,1.56,0.121,2.34C63.549,42.775,61.675,41.785,59.894,40.716z"/>
		<path d="M109.003,62.256c-7.213-0.589-16.853-1.35-21.783,5.173c-4.498,5.949-4.396,17.047-3.244,24.052
			c-0.204,1.037,0.223,2.222,1.444,2.509c6.821,1.604,14.498,2.481,21.491,2.521c1.94,0.011,3.5-1.612,3.525-3.525
			c0.117-9.108,1.141-18.152,2.093-27.203C112.743,63.758,110.757,62.399,109.003,62.256z M105.122,68.898
			c-0.213,1.847-0.362,3.696-0.535,5.544c-1.236-0.909-2.492-1.795-3.682-2.785c-1.003-0.834-1.95-1.734-2.86-2.671
			C100.325,68.623,102.841,68.682,105.122,68.898z M90.264,89.93c0.131-1.449,0.152-2.936,0.149-4.435
			c1.511,1.456,3.001,2.932,4.608,4.291c0.02,0.017,0.039,0.034,0.059,0.051C93.477,89.885,91.876,89.94,90.264,89.93z
			 M100.081,89.678c-1.062-0.79-2.188-1.515-3.211-2.288c-2.254-1.701-4.389-3.549-6.455-5.471c0.01-0.888,0.044-1.772,0.104-2.649
			c2.849,2.529,5.568,5.207,8.372,7.786c0.856,0.788,1.836,1.707,2.895,2.557C101.217,89.635,100.649,89.655,100.081,89.678z
			 M103.658,86.47c-1.014-0.563-2.016-1.138-2.919-1.809c-3.403-2.527-6.366-5.618-9.697-8.242
			c-0.044-0.035-0.093-0.043-0.138-0.071c0.238-1.252,0.569-2.478,1.105-3.648c2.667,2.694,5.469,5.246,8.323,7.741
			c0.968,0.846,2.193,2.069,3.524,3.055C103.794,84.488,103.704,85.477,103.658,86.47z M102.413,77.743
			c-3.057-2.154-5.887-4.646-8.612-7.209c0.343-0.258,0.785-0.392,1.18-0.587c2.445,3.364,5.513,6.915,9.236,8.317
			c-0.015,0.177-0.037,0.354-0.051,0.531C103.504,78.43,102.893,78.082,102.413,77.743z"/>
		<path d="M109.546,23.931c-0.012-2.024-1.666-3.659-3.682-3.682c-6.292-0.07-12.541-0.862-18.833-0.932
			c-1.937-0.022-3.579,1.639-3.568,3.568c0.026,4.367,0.04,8.734-0.077,13.1c-0.072,2.68-0.745,6.803-0.057,8.557
			c0.605,1.542,1.771,2.148,3.387,1.923c1.941-0.27,2.754-1.831,3.133-3.615c1.864,1.791,3.954,3.568,6.194,5.157
			c-1.012,0.004-2.022,0.029-3.034,0.026c-2.214-0.007-4.685-0.286-6.646,0.914c-0.901,0.551-0.798,1.71,0,2.281
			c4.345,3.109,13.27,2.779,18.453,3.174c1.438,0.11,2.781-1.079,3.151-2.4C110.437,43.204,109.6,32.994,109.546,23.931z
			 M101.915,31.937c-1.868-1.643-3.748-3.275-5.621-4.913c1.927,0.148,3.854,0.293,5.784,0.409
			C102.028,28.928,101.972,30.437,101.915,31.937z M101.474,46.458c-0.961-0.509-1.931-1.006-2.851-1.564
			c-2.592-1.572-4.985-3.408-7.186-5.489c-0.376-0.356-0.793-0.484-1.196-0.485c0.006-0.126,0.012-0.267,0.019-0.385
			c0.066-1.056,0.087-2.115,0.127-3.172c2.232,2.237,4.658,4.241,7.149,6.181c1.338,1.042,2.635,2.173,3.972,3.248
			C101.506,45.345,101.468,45.906,101.474,46.458z M100.051,39.883c-2.82-1.854-5.482-4.072-7.931-6.392
			c-0.546-0.517-1.202-0.414-1.654-0.054c0.056-2.139,0.085-4.279,0.1-6.418c3.558,3.837,7.146,7.843,11.12,11.284
			c-0.029,0.856-0.069,1.709-0.094,2.564C101.077,40.542,100.555,40.215,100.051,39.883z"/>
		<path d="M141.438,63.694c-6.642-0.889-13.109,0.08-19.663,1.169c-1.357,0.225-2.285,1.732-2.293,3.011
			c-0.018,2.663-0.126,5.325-0.257,7.985c-0.059,0.22-0.077,0.449-0.035,0.679c-0.073,1.428-0.145,2.857-0.225,4.284
			c-0.18,3.233-0.777,6.541,0.196,9.684c0.677,2.186,3.257,2.267,4.418,0.676c1.228,0.696,2.655,1.107,3.975,1.514
			c3.839,1.18,7.798,2.017,11.789,2.436c1.321,0.14,2.826-1.068,3.08-2.345c1.688-8.469,2.338-17.341,2.146-25.958
			C144.53,64.946,143.163,63.925,141.438,63.694z M138.114,69.677c-0.09,1.366-0.236,2.727-0.353,4.091
			c-0.935-0.661-1.898-1.29-2.804-1.956c-0.916-0.674-1.821-1.362-2.719-2.057C134.192,69.613,136.15,69.563,138.114,69.677z
			 M124.62,87.923c0.338-1.918,0.387-3.869,0.506-5.871c0.007-0.112,0.009-0.225,0.016-0.337c1.61,1.337,3.209,2.69,4.838,4.006
			c1.148,0.928,2.417,2.091,3.784,3.009C130.69,88.641,127.594,88.406,124.62,87.923z M136.708,85.344
			c-1.767-1.203-3.812-2.194-5.4-3.304c-2.01-1.403-3.989-2.839-5.987-4.251c0.024-0.493,0.041-0.987,0.066-1.48
			c2.459,1.87,4.954,3.693,7.457,5.503c1.318,0.953,2.59,1.971,3.928,2.871C136.75,84.903,136.728,85.124,136.708,85.344z
			 M136.267,78.922c-3.191-2.133-6.406-4.237-9.528-6.471c-0.38-0.272-0.78-0.322-1.163-0.269c0.021-0.547,0.061-1.095,0.075-1.642
			c0.99-0.156,1.979-0.298,2.971-0.424c1.344,1.133,2.704,2.25,3.952,3.486c1.521,1.506,3.038,3.208,4.821,4.447
			c-0.049,0.5-0.08,1.001-0.129,1.5C136.925,79.339,136.579,79.13,136.267,78.922z"/>
		<path d="M138.753,21.838c-0.021-1.156-0.643-2.607-1.779-3.103c-5.581-2.438-11.364-3.52-17.4-2.394
			c-1.166,0.217-2.179,1.356-2.466,2.466c-1.192,4.614-1.616,9.399-1.874,14.16c-1.088,0.073-1.973,1.436-0.982,2.456
			c0.255,0.263,0.545,0.484,0.807,0.741c-0.246,3.799-1.449,10.039,1.287,12.859c0.784,0.808,1.99,1.012,3.021,0.67
			c1.585,0.306,3.425,0.172,4.808,0.225c4.012,0.154,8.023,0.335,12.032,0.532c2.036,0.1,3.332-1.677,3.501-3.5
			C140.475,38.682,138.915,30.134,138.753,21.838z M131.865,32.109c-0.518-0.376-1.037-0.75-1.528-1.131
			c-2.38-1.843-4.777-3.634-7.341-5.209c0.137-0.935,0.254-1.873,0.442-2.797c0.377-0.023,0.752-0.004,1.128-0.003
			c0.999,0.938,2.019,1.856,3.006,2.797c1.402,1.335,2.757,2.767,4.212,4.066C131.819,30.592,131.835,31.348,131.865,32.109z
			 M126.362,40.497c-1.48-0.82-2.891-1.74-4.285-2.681c-0.001-0.195-0.011-0.41-0.006-0.593c0.013-0.426,0.035-0.855,0.051-1.283
			c1.547,1.501,3.137,2.953,4.841,4.291c0.673,0.529,1.381,1.069,2.108,1.592C128.127,41.387,127.195,40.959,126.362,40.497z
			 M129.214,37.313c-2.465-1.548-4.717-3.407-6.89-5.34c0.042-0.647,0.119-1.292,0.174-1.938c1.979,1.403,3.88,2.897,5.688,4.538
			c1.268,1.151,2.536,2.517,3.898,3.714c0.012,0.202,0.009,0.404,0.022,0.605C131.12,38.388,130.131,37.889,129.214,37.313z"/>
	</g>
</g>
<g>
</g>
<g>
</g>
<g>
</g>
<g>
</g>
<g>
</g>
<g>
</g>
<g>
</g>
<g>
</g>
<g>
</g>
<g>
</g>
<g>
</g>
<g>
</g>
<g>
</g>
<g>
</g>
<g>
</g>
</svg>
