<svg height="511pt" viewBox="0 -17 511.99936 511" width="511pt" xmlns="http://www.w3.org/2000/svg"><path d="m142.546875 73.015625c-14.355469-10.726563-30.257813-13.035156-47.097656-15.480469l-.574219-.085937c-17.382812-2.523438-34.945312-1.984375-52.210938 1.617187-9.730468 2.027344-19.1875 5.019532-28.097656 8.894532-3.3125 1.4375-13.386718 5.8125-14.4765622 14.703124-.4726558 3.835938.9375002 8.011719 3.8671872 11.460938 2.554688 3.007812 5.808594 5.078125 8.652344 6.707031 1.113281.640625 2.246094 1.242188 3.382813 1.828125-4.355469 94.90625-6.535157 191.167969-6.46875 286.148438.011718 15.859375.027343 35.597656 8.039062 52.371094 8.816406 18.460937 27.613281 32.175781 47.886719 34.933593 2.613281.355469 5.25.53125 7.890625.53125 17.855468 0 35.894531-7.945312 47.59375-21.390625 19.019531-21.84375 20.304687-52.039062 19.984375-83.664062l-2.644531-261.742188c-.011719-.757812-.261719-1.453125-.671876-2.023437 4.527344-2.148438 7.816407-4.421875 10.285157-7.128907 3.597656-3.945312 5.320312-8.84375 4.722656-13.433593-.652344-5.015625-3.945313-9.675781-10.0625-14.246094zm-26.945313 377.597656c-11.910156 13.683594-31.214843 20.941407-49.199218 18.496094-17.972656-2.449219-34.640625-14.605469-42.460938-30.976563-7.324218-15.332031-7.335937-33.394531-7.347656-49.328124-.066406-93.917969 2.074219-189.082032 6.335938-282.949219 18.027343 7.460937 38.003906 9.296875 57.207031 10.023437 3.847656.144532 7.734375.242188 11.628906.242188 13.433594 0 26.984375-1.179688 39.441406-5.652344l2.644531 261.191406c.304688 30.207032-.863281 58.976563-18.25 78.953125zm27.0625-354.683593c-1.929687 2.117187-4.691406 3.957031-8.6875 5.792968-16.121093 7.402344-35.273437 7.785156-53.570312 7.089844-22.050781-.832031-45.101562-3.117188-64.28125-14.113281-2.316406-1.324219-4.929688-2.976563-6.78125-5.152344-1.652344-1.945313-2.46875-4.140625-2.238281-6.023437.402343-3.28125 3.761719-6.25 10.277343-9.078126 8.472657-3.683593 17.464844-6.527343 26.726563-8.457031 16.449219-3.429687 33.1875-3.949219 49.75-1.542969l.574219.085938c15.925781 2.3125 30.96875 4.496094 43.882812 14.148438 4.507813 3.367187 6.890625 6.472656 7.28125 9.492187.324219 2.488281-.773437 5.386719-2.933594 7.757813zm0 0"/><path d="m117.183594 78.070312c-9.023438-5.875-18.820313-7.21875-29.195313-8.644531l-.355469-.046875c-10.6875-1.464844-21.464843-1.304687-32.035156.476563-5.972656 1.007812-11.765625 2.53125-17.222656 4.523437-2.222656.816406-8.992188 3.285156-9.726562 9.019532-.332032 2.585937.726562 5.335937 2.90625 7.546874 1.714843 1.742188 3.824218 2.921876 5.65625 3.84375 12.738281 6.414063 27.515624 7.878907 41.589843 8.503907 2.945313.128906 5.925781.222656 8.914063.222656 8.949218 0 17.929687-.832031 26-3.953125 1.96875-.761719 4.84375-2.019531 7.074218-4.136719 2.605469-2.464843 3.808594-5.625 3.308594-8.671875-.6875-4.195312-4.273437-6.964844-6.914062-8.683594zm-1.253906 12.222657c-1.011719.957031-2.527344 1.808593-4.765626 2.675781-9.546874 3.695312-21.042968 3.75-32.050781 3.261719-13.285156-.589844-27.171875-1.9375-38.722656-7.753907-1.242187-.625-2.800781-1.476562-3.800781-2.492187-.746094-.753906-.964844-1.417969-.929688-1.679687.019532-.152344.328125-1.523438 5.140625-3.285157 5.054688-1.84375 10.425781-3.253906 15.972657-4.191406 5.417968-.914063 10.890624-1.371094 16.382812-1.371094 4.503906 0 9.019531.308594 13.515625.925781l.359375.050782c9.980469 1.367187 18.601562 2.550781 26.296875 7.5625 3.074219 2.003906 3.699219 3.304687 3.796875 3.902344.109375.675781-.347656 1.59375-1.195312 2.394531zm0 0"/><path d="m396.195312 44.171875c1.964844-.757813 4.839844-2.015625 7.074219-4.132813 2.601563-2.464843 3.808594-5.628906 3.308594-8.671874-.6875-4.195313-4.277344-6.96875-6.914063-8.6875-9.023437-5.875-18.824218-7.21875-29.195312-8.640626l-.355469-.050781c-10.683593-1.464843-21.464843-1.300781-32.039062.480469-5.96875 1.007812-11.761719 2.527344-17.222657 4.523438-2.222656.8125-8.988281 3.285156-9.726562 9.023437-.332031 2.582031.726562 5.332031 2.90625 7.542969 1.71875 1.742187 3.828125 2.917968 5.660156 3.84375 12.738282 6.414062 27.515625 7.875 41.589844 8.5 2.941406.132812 5.925781.222656 8.910156.222656 8.953125 0 17.933594-.828125 26.003906-3.953125zm-34.601562-3.332031c-13.289062-.589844-27.175781-1.9375-38.722656-7.753906-1.246094-.625-2.800782-1.472657-3.804688-2.492188-.742187-.753906-.960937-1.417969-.929687-1.679688.019531-.148437.328125-1.523437 5.144531-3.28125 5.050781-1.847656 10.425781-3.257812 15.96875-4.195312 5.417969-.914062 10.894531-1.367188 16.386719-1.367188 4.503906 0 9.019531.304688 13.515625.921876l.355468.050781c9.984376 1.367187 18.601563 2.550781 26.296876 7.5625 3.074218 2.003906 3.699218 3.304687 3.796874 3.90625.113282.671875-.34375 1.589843-1.191406 2.394531-1.011718.960938-2.527344 1.808594-4.765625 2.675781-9.546875 3.691407-21.046875 3.746094-32.050781 3.257813zm0 0"/><path d="m508.09375 334.457031c-8.140625-34.300781-27.058594-65.054687-44.152344-91.191406-2.5-3.820313-5.027344-7.636719-7.550781-11.457031-15.675781-23.710938-31.890625-48.230469-42.574219-74.785156-14.214844-35.320313-16.703125-72.492188-6.660156-99.433594.066406-.171875.101562-.347656.136719-.523438 4.144531-1.105468 8.199219-2.511718 12.113281-4.308594 4.886719-2.246093 8.367188-4.613281 10.960938-7.453124 3.597656-3.945313 5.316406-8.839844 4.722656-13.433594-.652344-5.015625-3.945313-9.675782-10.0625-14.246094-14.355469-10.726562-30.261719-13.035156-47.097656-15.480469l-.578126-.085937c-17.382812-2.523438-34.949218-1.980469-52.210937 1.617187-9.726563 2.027344-19.183594 5.019531-28.097656 8.894531-3.3125 1.4375-13.386719 5.816407-14.476563 14.699219-.46875 3.839844.941406 8.019531 3.867188 11.460938 2.554687 3.007812 5.808594 5.082031 8.652344 6.710937 2.121093 1.214844 4.285156 2.308594 6.472656 3.332032 3.1875 32.023437 6.785156 68.308593-4.023438 100.773437-6.421875 19.304687-17.933594 37.015625-28.214844 52.101563-3.792968 5.5625-7.722656 11.207031-11.523437 16.667968-20.398437 29.292969-41.492187 59.582032-53.085937 93.976563-7.269532 21.5625-9.808594 44.078125-7.34375 65.113281 2.730468 23.285156 11.648437 43.546875 25.792968 58.601562 12.953125 13.785157 30.125 23.664063 52.488282 30.195313 20.328124 5.941406 42.257812 8.277344 61.027343 9.785156 13.398438 1.070313 27.21875 2.019531 41.148438 2.019531 13.871093 0 27.847656-.941406 41.625-3.632812 30.707031-5.996094 56.265625-20.542969 71.96875-40.953125 19.226562-24.976563 25.457031-61.976563 16.675781-98.964844zm-216.269531-300.300781c-1.65625-1.945312-2.472657-4.140625-2.238281-6.023438.402343-3.28125 3.761718-6.25 10.273437-9.078124 8.476563-3.683594 17.46875-6.527344 26.726563-8.457032 9.675781-2.019531 19.449218-3.027344 29.230468-3.027344 6.847656 0 13.699219.492188 20.519532 1.484376l.578124.085937c15.925782 2.3125 30.964844 4.496094 43.882813 14.144531 4.507813 3.371094 6.890625 6.476563 7.28125 9.496094.324219 2.488281-.773437 5.386719-2.933594 7.757812-1.933593 2.117188-4.691406 3.957032-8.6875 5.789063-16.121093 7.40625-35.273437 7.789063-53.570312 7.09375-22.050781-.832031-45.097657-3.117187-64.285157-14.113281-2.3125-1.324219-4.929687-2.976563-6.777343-5.152344zm193.996093 394.957031c-14.65625 19.046875-38.707031 32.65625-67.726562 38.324219-26.726562 5.222656-54.597656 3.609375-80.851562 1.503906-38.421876-3.078125-81.691407-8.792968-108.929688-37.773437-13.097656-13.941407-21.371094-32.816407-23.921875-54.582031-2.34375-20.003907.082031-41.453126 7.019531-62.03125 11.273438-33.4375 32.074219-63.308594 52.1875-92.195313 3.8125-5.472656 7.75-11.132813 11.5625-16.722656 10.554688-15.480469 22.371094-33.6875 29.085938-53.855469 10.847656-32.59375 7.867187-68.136719 4.726562-99.917969 17.074219 6.296875 35.699219 7.949219 53.644532 8.628907 3.847656.144531 7.734374.242187 11.628906.242187 8.390625 0 16.824218-.464844 25.007812-1.898437-9.117187 28.171874-6.214844 65.492187 8.003906 100.832031 10.953126 27.214843 27.363282 52.035156 43.234376 76.042969 2.519531 3.808593 5.035156 7.613281 7.53125 11.425781 16.765624 25.636719 35.3125 55.765625 43.191406 88.957031 8.296875 34.933594 2.539062 69.710938-15.394532 93.019531zm0 0"/><path d="m125.546875 249.671875c-.074219-6.390625-.15625-13.640625-3.203125-20.21875-3.453125-7.449219-10.671875-12.722656-18.394531-13.4375-9.359375-.859375-17.40625 4.433594-24.496094 9.105469l-.960937.632812c-5.101563 3.351563-12.730469 7.675782-20.144532 6.546875-3.09375-.472656-5.390625-2.246093-7.820312-4.117187-2.574219-1.984375-5.234375-4.039063-8.960938-4.683594-3-.519531-5.71875.09375-8.074218 1.820312-4.277344 3.140626-7.136719 9.84375-8.496094 19.933594-1.398438 10.347656-1.128906 21.066406-.871094 31.429688.109375 4.339844.21875 8.828125.203125 13.167968l-.398437 101.613282c-.058594 14.71875-.125 31.398437 7.0625 46.226562 6.65625 13.746094 22.34375 27.695313 42.367187 27.863282h.351563c14.917968 0 29.820312-7.914063 38.972656-20.71875 8.75-12.25 11.3125-26.976563 12.566406-38.4375 1.863281-17.046876 1.671875-34.386719 1.484375-51.15625zm-89.664063-21.09375c1.457032-1.066406 3.085938-1.425781 4.996094-1.097656 2.738282.476562 4.894532 2.140625 7.179688 3.902343 2.605468 2.007813 5.554687 4.28125 9.679687 4.910157 8.773438 1.34375 17.316407-3.445313 22.972657-7.164063l.964843-.632812c6.855469-4.523438 13.953125-9.195313 21.898438-8.457032 6.316406.582032 12.246093 4.945313 15.105469 11.109376 1.539062 3.324218 2.21875 6.882812 2.53125 10.496093-.199219.105469-.386719.238281-.546876.414063-8.917968 9.730468-20.917968 16.703125-33.792968 19.628906-12.871094 2.925781-26.707032 1.824219-38.953125-3.101562-5.375-2.160157-9.460938-4.6875-12.484375-7.71875-3.761719-3.773438-5.445313-5.652344-5.617188-9.816407 1.632813-7.699219 4.117188-11.042969 6.066406-12.472656zm85.351563 177.382813c-1.273437 11.652343-3.679687 25.105468-11.835937 36.527343-8.34375 11.671875-22.441407 19.171875-36.003907 19.027344-18.292969-.15625-32.652343-12.960937-38.769531-25.585937-6.777344-13.988282-6.710938-30.171876-6.65625-44.449219l.402344-101.613281c.015625-4.398438-.097656-8.914063-.207032-13.28125-.222656-9.015626-.453124-18.300782.429688-27.257813 1.113281 1.507813 2.480469 2.886719 3.980469 4.390625 3.417969 3.429688 7.945312 6.25 13.835937 8.617188 8.238282 3.308593 17.144532 4.992187 26.046875 4.992187 5.152344 0 10.300781-.5625 15.3125-1.703125 12.648438-2.875 24.496094-9.433594 33.699219-18.585938.015625.894532.027344 1.789063.035156 2.679688l1.1875 105.566406c.1875 16.652344.382813 33.871094-1.457031 50.675782zm0 0"/><path d="m45.773438 209.597656c3.089843 2.324219 6.90625 3.476563 10.6875 3.476563 4.121093 0 8.199218-1.371094 11.246093-4.082031 4.691407-4.175782 6.996094-11.199219 6.007813-18.328126-.949219-6.859374-4.757813-12.527343-10.183594-15.167968-4.527344-2.199219-9.578125-2.109375-14.214844.261718-5.558594 2.832032-9.6875 8.4375-10.78125 14.621094-1.28125 7.277344 1.625 15 7.238282 19.21875zm-3.257813-18.515625c.863281-4.886719 4.25-9.492187 8.636719-11.726562 1.449218-.742188 3.378906-1.414063 5.601562-1.414063 1.546875 0 3.242188.328125 5.007813 1.1875 4.214843 2.050782 7.1875 6.570313 7.953125 12.085938.800781 5.8125-.996094 11.46875-4.695313 14.761718-4.378906 3.898438-11.925781 4.074219-16.820312.390626-4.425781-3.328126-6.710938-9.472657-5.683594-15.285157zm0 0"/><path d="m85.8125 163.203125c2.652344 2 5.929688 2.988281 9.179688 2.988281 3.542968 0 7.050781-1.179687 9.671874-3.511718 4.023438-3.585938 6-9.597657 5.15625-15.699219-.8125-5.871094-4.082031-10.730469-8.742187-12.996094-3.902344-1.898437-8.246094-1.816406-12.238281.21875-4.761719 2.429687-8.300782 7.230469-9.234375 12.527344-1.097657 6.234375 1.394531 12.855469 6.207031 16.472656zm-2.230469-15.769531c.707031-4.011719 3.492188-7.792969 7.089844-9.628906 1.183594-.605469 2.757813-1.152344 4.566406-1.152344 1.257813 0 2.636719.265625 4.074219.964844 3.445312 1.675781 5.878906 5.382812 6.503906 9.917968.664063 4.785156-.808594 9.429688-3.839844 12.128906-3.574218 3.183594-9.734374 3.324219-13.738281.3125-3.625-2.726562-5.496093-7.769531-4.65625-12.542968zm0 0"/><path d="m443.597656 241.621094c-10.667968-17.222656-22.675781-34.375-41.65625-38.378906-11.839844-2.5-23.675781.925781-35.125 4.238281-11.535156 3.339843-22.429687 6.492187-33.320312 4.128906-4.726563-1.027344-9.105469-3.039063-13.742188-5.175781-3.738281-1.714844-7.597656-3.492188-11.660156-4.703125-18.71875-5.574219-27.75 7.394531-36.488281 19.941406-.914063 1.308594-1.828125 2.625-2.757813 3.917969-10.714844 14.957031-22.992187 32.859375-32.789062 52.21875-13.914063 27.503906-20.699219 54.027344-20.171875 78.832031.632812 29.613281 12.136719 56.632813 31.5625 74.128906 26.699219 24.046875 64.902343 28.503907 98.757812 29.691407 5.601563.199218 11.300781.335937 17.066407.335937 16.546874 0 33.636718-1.148437 50.4375-5.414063 24.316406-6.164062 44.734374-18.675781 57.5-35.226562 17.875-23.183594 23.195312-57.835938 14.226562-92.691406-8.058594-31.328125-25.230469-59.042969-41.839844-85.84375zm-143.914062-37.164063c2.21875 0 4.621094.363281 7.257812 1.144531 3.785156 1.128907 7.515625 2.84375 11.125 4.503907 4.628906 2.128906 9.414063 4.332031 14.570313 5.453125 11.890625 2.582031 23.789062-.863282 35.300781-4.195313 11.480469-3.320312 22.320312-6.460937 33.167969-4.167969 13.9375 2.941407 24.035156 14.023438 32.746093 26.773438-.210937.148438-.398437.335938-.542968.566406-3.675782 5.753906-11.5 6.800782-14.695313 6.984375-3.195312.183594-6.367187-.042969-9.726562-.285156-2.929688-.214844-5.964844-.433594-8.996094-.347656-11.554687.328125-22.238281 4.960937-32.574219 9.441406-7.71875 3.347656-15.695312 6.808594-23.882812 8.375-14.226563 2.722656-29.300782-.332031-41.34375-8.378906-12.222656-8.167969-19.257813-18.460938-22.132813-32.402344-.046875-.226563-.140625-.433594-.253906-.621094 5.527344-7.3125 11.316406-12.84375 19.980469-12.84375zm168.328125 213.230469c-12.214844 15.835938-31.847657 27.835938-55.292969 33.78125-22.167969 5.625-45 5.703125-66.367188 4.957031-33.128906-1.164062-70.464843-5.476562-96.199218-28.65625-18.601563-16.753906-29.617188-42.710937-30.226563-71.214843-.515625-24.136719 6.125-50.015626 19.738281-76.921876 9.671876-19.117187 21.839844-36.855468 32.46875-51.6875.9375-1.3125 1.863282-2.640624 2.785157-3.964843.578125-.832031 1.152343-1.648438 1.722656-2.457031 3.433594 13.496093 11.046875 24.039062 23.203125 32.160156 9.828125 6.566406 21.527344 10.03125 33.28125 10.03125 3.703125 0 7.410156-.34375 11.066406-1.042969 8.625-1.648437 16.8125-5.203125 24.730469-8.636719 10.445313-4.527344 20.304687-8.804687 31.082031-9.109375 2.832032-.078125 5.757813.132813 8.59375.335938 3.335938.242187 6.789063.492187 10.246094.292969 7.65625-.441407 13.910156-3.375 17.339844-8.085938 1.355468 2.074219 2.679687 4.175781 3.980468 6.28125 16.449219 26.542969 33.453126 53.992188 41.359376 84.722656 8.660156 33.660156 3.609374 67.011719-13.511719 89.214844zm0 0"/><path d="m326.847656 196.800781c1.078125.15625 2.175782.234375 3.28125.234375 5.074219 0 10.339844-1.628906 14.851563-4.664062 5.804687-3.90625 9.933593-9.796875 11.332031-16.171875 1.507812-6.894531-.320312-14.273438-4.773438-19.261719-3.960937-4.4375-9.304687-6.636719-15.46875-6.34375-8.132812.382812-17.046874 5.3125-22.183593 12.273438-5.171875 7.007812-6.199219 16.382812-2.550781 23.320312 2.929687 5.582031 8.875 9.648438 15.511718 10.613281zm-9.707031-31.535156c4.449219-6.035156 12.136719-10.308594 19.117187-10.636719.273438-.011718.550782-.019531.839844-.019531 3.347656 0 7.792969.949219 11.429688 5.019531 3.605468 4.035156 5.074218 10.054688 3.835937 15.707032-1.171875 5.367187-4.6875 10.351562-9.640625 13.683593-4.667968 3.140625-10.234375 4.519531-15.292968 3.785157-5.382813-.785157-10.179688-4.039063-12.519532-8.496094-2.941406-5.597656-2.046875-13.25 2.230469-19.042969zm0 0"/><path d="m360.160156 140.320312c.828125.121094 1.667969.179688 2.511719.179688 3.875 0 7.890625-1.242188 11.332031-3.554688 4.425782-2.976562 7.574219-7.472656 8.640625-12.339843 1.15625-5.285157-.25-10.945313-3.667969-14.769531-3.050781-3.417969-7.179687-5.109376-11.90625-4.890626-6.195312.289063-12.976562 4.039063-16.882812 9.332032-3.960938 5.367187-4.742188 12.554687-1.941406 17.882812 2.257812 4.292969 6.820312 7.417969 11.914062 8.160156zm-6.722656-23.644531c3.222656-4.367187 8.777344-7.457031 13.820312-7.695312 3.539063-.164063 6.460938 1.03125 8.707032 3.546875 2.570312 2.875 3.617187 7.175781 2.730468 11.214844-.84375 3.859374-3.375 7.449218-6.945312 9.851562-3.367188 2.261719-7.382812 3.257812-11.007812 2.730469-3.835938-.558594-7.253907-2.875-8.917969-6.042969-2.097657-3.988281-1.449219-9.457031 1.613281-13.605469zm0 0"/></svg>