<svg width="271" height="346" viewBox="0 0 271 346" fill="none" xmlns="http://www.w3.org/2000/svg">
<path d="M266.473 327.5C266.806 328.833 267.639 331.5 268.973 335.5C270.306 339.167 270.973 342.667 270.973 346C265.639 346 258.806 345.167 250.473 343.5C242.139 341.833 236.306 340.5 232.973 339.5C230.639 336.167 227.473 333 223.473 330C219.806 326.667 217.639 324.667 216.973 324C210.306 318.667 205.139 313.833 201.473 309.5C197.806 304.833 195.973 299.333 195.973 293C192.973 293 191.139 292.667 190.473 292C190.139 291.333 189.973 289.5 189.973 286.5C184.639 286.5 180.306 284.333 176.973 280C173.639 275.333 170.139 268.667 166.473 260C163.473 253 160.806 247.667 158.473 244C154.806 244 151.806 242.5 149.473 239.5C147.473 236.167 145.639 232.5 143.973 228.5C142.306 224.5 140.973 221.5 139.973 219.5C138.306 216.833 135.139 213.167 130.473 208.5C124.139 201.5 120.139 195.833 118.473 191.5C116.473 186.167 110.973 176.667 101.973 163C93.306 149 84.4727 136.333 75.4727 125C66.806 113.667 61.1393 108 58.4727 108C56.806 108 55.1393 114.333 53.4727 127C53.4727 140 53.9727 154.333 54.9727 170C55.9727 185.333 56.6393 195.5 56.9727 200.5C59.306 229.167 60.4727 253.833 60.4727 274.5C60.4727 280.167 59.9727 286.167 58.9727 292.5C57.9727 298.5 57.306 302.5 56.9727 304.5C54.6393 316.167 53.4727 326 53.4727 334C53.4727 339.333 50.1393 342.667 43.4727 344C36.806 345.333 28.806 346 19.4727 346C18.1393 346 15.9727 345.667 12.9727 345C10.306 344.333 7.47266 343.667 4.47266 343C3.80599 337.667 3.13932 331 2.47266 323C1.80599 314.667 1.30599 307.833 0.972657 302.5C0.972657 282.833 1.97266 253 3.97266 213C6.30599 176.667 7.47266 144.833 7.47266 117.5C5.80599 110.833 4.13932 103.833 2.47266 96.5C1.13932 88.8333 0.472656 81.8333 0.472656 75.5C0.472656 68.1667 1.13932 58.1667 2.47266 45.5C4.13932 34.8333 4.97266 24.6667 4.97266 15L4.47266 3.49997C9.80599 2.16666 14.306 1.33332 17.9727 0.999975C21.9727 0.666646 26.1393 0.499981 30.4727 0.499981C35.4727 0.499981 39.9727 0.666646 43.9727 0.999975C48.306 1.33332 53.6393 2.16666 59.9727 3.49997C71.6393 21.5 78.306 31.6667 79.9727 34C93.306 54.3333 103.639 70.5 110.973 82.5C118.306 94.5 124.806 107.167 130.473 120.5C130.473 122.167 136.639 132 148.973 150C161.639 167.667 174.139 184.333 186.473 200C198.806 215.333 206.639 223 209.973 223C212.973 223 214.473 199.667 214.473 153L213.973 86.5C211.973 78.5 210.973 74.5 210.973 74.5C210.973 70.5 211.139 65.8333 211.473 60.5C212.139 55.1667 212.473 51.3333 212.473 49C213.473 41 213.973 32.6667 213.973 24C213.973 17.3333 216.306 13.1667 220.973 11.5C225.639 9.49999 231.973 8.5 239.973 8.5C246.639 8.5 251.806 8.99999 255.473 9.99998C259.473 10.6667 261.473 12.5 261.473 15.5C261.473 16.8333 261.139 18.8333 260.473 21.5C259.806 24.1667 259.473 26.5 259.473 28.5C259.473 30.1666 259.973 33.5 260.973 38.5C262.306 43.1667 262.973 46.8333 262.973 49.5C262.973 64.5 264.139 82 266.473 102C266.806 105.333 267.473 112.667 268.473 124C269.473 135 269.973 145.5 269.973 155.5C269.973 168.833 268.806 184.833 266.473 203.5C264.473 223.5 263.473 238.667 263.473 249V266.5C263.473 291.167 264.473 311.5 266.473 327.5ZM22.4727 15.5C18.806 15.5 16.9727 16.6667 16.9727 19C16.9727 19.6667 17.806 21.6667 19.4727 25L29.4727 19L22.4727 15.5ZM41.4727 21.5C36.806 21.5 31.4727 24.5 25.4727 30.5C19.806 36.5 16.9727 41.8333 16.9727 46.5C16.9727 47.1666 17.306 47.8333 17.9727 48.5C18.6393 49.1666 19.1393 49.5 19.4727 49.5L44.4727 22L41.4727 21.5ZM52.4727 24.5C50.1393 24.5 47.6393 26.3333 44.9727 30C42.306 33.6666 40.1393 37.1666 38.4727 40.5L39.9727 41C40.306 40.6666 42.806 39.3333 47.4727 37C52.1393 34.3333 55.1393 32.3333 56.4727 31C56.4727 30 55.9727 28.6667 54.9727 27C53.9727 25.3333 53.1393 24.5 52.4727 24.5ZM225.973 74.5H229.473L244.973 59L241.973 56L247.973 53C248.639 51.3333 249.306 48.3333 249.973 44C250.639 39.6667 250.973 36.3333 250.973 34C250.973 33 250.639 32 249.973 31C249.306 29.6666 248.639 28.8333 247.973 28.5H229.473L225.973 40.5C225.973 43.8333 226.806 47.3333 228.473 51C230.139 54.3333 232.473 56.5 235.473 57.5H225.973V74.5ZM68.9727 53C68.6393 52 67.806 50.1666 66.4727 47.5C65.4727 44.8333 64.306 43.5 62.9727 43.5C58.306 43.5 50.6393 47.6667 39.9727 56C29.306 64.3333 21.6393 71.5 16.9727 77.5H19.4727L68.9727 53ZM41.4727 49.5C36.1393 49.5 30.6393 51 24.9727 54C19.6393 56.6666 16.9727 60.3333 16.9727 65H19.4727L44.4727 49.5H41.4727ZM93.9727 102.5C93.9727 104.5 93.306 107.5 91.9727 111.5C90.6393 115.167 89.9727 118.333 89.9727 121C102.973 121 109.473 119.5 109.473 116.5C109.473 108.167 102.139 94.1667 87.4727 74.5L72.4727 59C70.806 59.3333 65.4727 62.5 56.4727 68.5C57.806 70.8333 59.306 73.8333 60.9727 77.5C62.9727 80.8333 64.806 83.1667 66.4727 84.5C68.1393 85.5 70.6393 86 73.9727 86C73.9727 92.6667 74.4727 97.6667 75.4727 101C76.806 104 79.806 107.5 84.4727 111.5L93.4727 99L93.9727 102.5ZM225.973 97C227.639 97 231.806 92.6667 238.473 84C245.139 75 248.473 69.8333 248.473 68.5H244.973L225.973 86.5V97ZM36.9727 77C35.9727 77.6667 33.306 79 28.9727 81C24.6393 83 21.4727 84.8333 19.4727 86.5V117.5L22.4727 120.5C25.806 118.167 29.806 114.667 34.4727 110C39.1393 105.333 41.4727 101.167 41.4727 97.5C40.1393 95.5 38.9727 92.6667 37.9727 89C37.306 85 36.9727 81 36.9727 77ZM248.973 106C248.973 91 247.639 83.5 244.973 83.5C238.639 91.1667 235.473 97 235.473 101C235.473 104.333 239.973 106 248.973 106ZM232.973 108C231.973 108 230.639 109.5 228.973 112.5C227.306 115.167 226.306 116.833 225.973 117.5C225.973 119.167 226.306 121.667 226.973 125C227.973 128 228.806 129.5 229.473 129.5H232.973L247.973 114.5C247.306 112.5 245.139 111 241.473 110C237.806 108.667 234.973 108 232.973 108ZM96.9727 127C100.639 133.333 103.139 136.5 104.473 136.5C107.473 136.5 109.806 135 111.473 132C113.139 129 113.973 125.833 113.973 122.5C109.973 122.5 106.639 122.833 103.973 123.5C101.306 123.833 98.9727 125 96.9727 127ZM238.973 195C241.639 192 244.973 186.833 248.973 179.5C253.306 172.167 255.473 166.833 255.473 163.5C253.139 163.5 251.306 164.167 249.973 165.5C248.639 166.5 247.139 168.333 245.473 171C242.473 176 239.139 178.667 235.473 179V173.5C240.806 169.167 245.139 164.333 248.473 159C252.139 153.667 253.973 148.167 253.973 142.5H241.973C242.973 141.167 244.473 140 246.473 139C248.806 137.667 250.639 136.333 251.973 135C253.639 133.667 254.473 131.833 254.473 129.5C254.473 128.5 253.806 127.333 252.473 126C251.139 124.333 250.139 123.5 249.473 123.5C245.806 123.5 241.806 125.833 237.473 130.5C233.473 134.833 231.473 138.833 231.473 142.5H234.973L235.473 145C235.139 145.667 233.139 147.833 229.473 151.5C227.139 157.833 225.973 168.5 225.973 183.5C225.973 187.5 226.306 190.167 226.973 191.5C227.639 192.5 228.639 193.5 229.973 194.5C231.306 195.167 232.306 196.333 232.973 198C233.306 198.667 232.973 199.833 231.973 201.5C230.973 202.833 230.139 203.5 229.473 203.5H250.973V191C249.639 191 247.639 191.5 244.973 192.5C242.639 193.167 240.639 194 238.973 195ZM38.4727 126.5C27.4727 126.5 21.9727 131.167 21.9727 140.5C23.9727 139.833 27.1393 138.167 31.4727 135.5C36.1393 132.5 38.4727 130.5 38.4727 129.5V126.5ZM117.973 155C120.639 155 122.973 154.5 124.973 153.5C126.973 152.5 127.973 150.833 127.973 148.5C127.973 145.833 127.139 143.667 125.473 142C123.806 140.333 120.973 138.333 116.973 136C115.973 136.333 114.306 137.167 111.973 138.5C109.973 139.833 108.973 141.5 108.973 143.5C108.973 147.5 109.973 150.5 111.973 152.5C113.973 154.167 115.973 155 117.973 155ZM24.9727 152C29.306 152 32.6393 150.833 34.9727 148.5C37.6393 145.833 38.9727 142.5 38.9727 138.5C35.6393 138.5 32.4727 140 29.4727 143C26.4727 145.667 24.9727 148.667 24.9727 152ZM40.4727 156C36.1393 156 31.9727 156.667 27.9727 158C24.306 159.333 22.4727 161.833 22.4727 165.5C22.4727 165.833 23.6393 169.5 25.9727 176.5C30.6393 173.167 34.1393 170 36.4727 167C39.1393 164 40.4727 160.333 40.4727 156ZM127.473 173.5C132.139 170.167 134.473 164.5 134.473 156.5C130.139 156.5 126.806 157 124.473 158C122.139 158.667 120.973 160.833 120.973 164.5C120.973 168.167 123.139 171.167 127.473 173.5ZM144.473 201.5C147.139 201.5 149.139 199.667 150.473 196C151.806 192.333 152.473 189 152.473 186C152.473 182 151.306 177.833 148.973 173.5C146.639 168.833 143.639 166.5 139.973 166.5C139.306 166.5 137.806 168.5 135.473 172.5C133.473 176.167 131.806 178.333 130.473 179C130.473 182.333 131.306 184.5 132.973 185.5C134.639 186.5 137.139 187 140.473 187C142.806 187 144.806 186.833 146.473 186.5C148.139 186.167 149.139 186 149.473 186C148.806 187 146.973 188.167 143.973 189.5C140.973 190.5 139.473 191.667 139.473 193C139.473 194.333 139.973 196.167 140.973 198.5C142.306 200.5 143.473 201.5 144.473 201.5ZM30.9727 183.5C38.306 183.5 41.9727 181.167 41.9727 176.5C41.9727 174.5 41.806 173.167 41.4727 172.5C41.1393 171.5 40.1393 170.667 38.4727 170C33.4727 175 30.9727 179.5 30.9727 183.5ZM38.4727 188.5C37.1393 188.833 34.6393 189.5 30.9727 190.5C27.6393 191.167 25.306 192.833 23.9727 195.5C22.9727 197.833 22.4727 201.667 22.4727 207L38.4727 191.5V188.5ZM176.973 241C179.973 241 182.806 240.333 185.473 239C188.139 237.667 189.473 235.833 189.473 233.5C189.473 231.5 187.973 229.333 184.973 227C181.973 224.333 179.806 222.667 178.473 222C178.139 222 177.806 222.167 177.473 222.5C177.139 222.5 176.973 222.5 176.973 222.5L161.473 191.5C161.473 191.5 161.306 191.5 160.973 191.5C160.639 191.167 160.306 191 159.973 191C156.973 191 154.806 192.667 153.473 196C152.473 199.333 151.973 203 151.973 207C151.973 211.333 152.806 214.333 154.473 216C156.139 217.667 158.973 218.5 162.973 218.5C162.973 219.5 162.639 220.833 161.973 222.5C161.639 224.167 161.473 225.833 161.473 227.5C161.473 230.5 162.973 232 165.973 232C166.973 232 168.306 231.667 169.973 231C171.639 230.333 172.973 229.5 173.973 228.5C171.973 234.5 170.973 237.667 170.973 238C170.973 240 172.973 241 176.973 241ZM25.9727 216.5C36.9727 216.5 42.4727 212.167 42.4727 203.5C42.4727 202.833 42.306 202 41.9727 201C41.9727 199.667 41.806 198.667 41.4727 198C32.4727 205.667 27.306 211.833 25.9727 216.5ZM238.973 222.5C240.973 221.167 242.973 219.167 244.973 216.5C247.306 213.5 248.473 211.5 248.473 210.5H229.473V235.5C233.139 235.5 237.139 234.167 241.473 231.5C245.806 228.833 248.973 225.833 250.973 222.5H238.973ZM31.4727 225.5C29.806 225.5 27.306 226.167 23.9727 227.5C20.9727 228.5 19.4727 230 19.4727 232C19.806 233 20.306 234.167 20.9727 235.5C21.6393 236.5 22.1393 237.333 22.4727 238L34.9727 225.5H31.4727ZM44.4727 238C44.4727 236.667 44.1393 235.167 43.4727 233.5C42.806 231.5 42.1393 229.833 41.4727 228.5C32.806 235.167 28.4727 242 28.4727 249C39.1393 249 44.4727 245.333 44.4727 238ZM220.473 290.5C232.473 290.5 240.639 285 244.973 274C249.306 263 251.473 251 251.473 238C251.473 234 250.306 232 247.973 232C242.973 232 239.139 233.333 236.473 236C234.139 238.333 231.806 242 229.473 247C227.139 252.333 224.639 256.333 221.973 259C219.639 261.333 215.973 262.5 210.973 262.5L211.473 261C211.473 259 210.473 257.333 208.473 256C207.473 256.333 204.973 257.5 200.973 259.5C196.973 261.5 194.139 263.5 192.473 265.5L204.473 278C205.473 277.333 209.806 274.167 217.473 268.5C225.473 262.833 232.306 260 237.973 260C237.973 262.667 234.139 269.833 226.473 281.5C223.139 286.167 221.139 289.167 220.473 290.5ZM188.973 260C190.639 260 193.139 259.333 196.473 258C199.806 256.333 202.473 254.833 204.473 253.5C204.473 250.5 204.306 248.333 203.973 247C203.639 245.667 202.973 245 201.973 245C201.306 245 200.473 245.167 199.473 245.5C198.473 245.833 197.306 246 195.973 246V237.5C192.973 237.5 189.473 238.833 185.473 241.5C181.806 243.833 179.973 246.333 179.973 249C180.306 249.667 180.639 250.5 180.973 251.5C181.639 252.167 182.306 252.833 182.973 253.5C183.973 253.5 184.973 253.167 185.973 252.5C187.306 251.5 188.306 250.667 188.973 250V260ZM25.9727 300C31.306 300 35.306 299.667 37.9727 299C40.9727 298 42.4727 295.667 42.4727 292C42.4727 291.333 42.306 290.5 41.9727 289.5C41.9727 288.5 41.806 287.667 41.4727 287C34.1393 293.333 27.806 296.5 22.4727 296.5C24.806 294.5 25.9727 291.833 25.9727 288.5L25.4727 279C25.4727 277.667 26.9727 273.667 29.9727 267C33.306 259.667 34.9727 255.167 34.9727 253.5C27.306 254.5 22.306 256.667 19.9727 260C17.6393 263 16.4727 268.333 16.4727 276L15.9727 286C15.9727 290.333 16.6393 293.833 17.9727 296.5C19.306 298.833 21.9727 300 25.9727 300ZM30.9727 279C35.6393 279 39.306 276.833 41.9727 272.5C44.9727 267.833 46.4727 263.333 46.4727 259C42.1393 258.667 38.4727 260.833 35.4727 265.5C32.4727 270.167 30.9727 274.667 30.9727 279ZM202.973 291.5C206.973 291.5 211.806 289 217.473 284C223.473 279 226.473 274.667 226.473 271L225.973 269C219.973 271 214.639 274 209.973 278C205.306 281.667 202.973 286.167 202.973 291.5ZM229.473 306C234.806 306 239.306 304.667 242.973 302C246.639 299.333 248.473 295.5 248.473 290.5H244.973L229.473 306ZM215.473 304.5C222.473 304.5 225.973 301.833 225.973 296.5C222.639 296.833 219.973 297.5 217.973 298.5C216.306 299.5 215.473 301.5 215.473 304.5ZM38.4727 305.5C30.1393 305.5 23.9727 306.667 19.9727 309C16.306 311.333 14.4727 316.333 14.4727 324H22.4727L38.4727 309V305.5ZM247.973 309L232.973 315.5V321.5L244.973 324H245.473C247.139 324 247.973 320.5 247.973 313.5V309Z" fill="#00CCCC"/>
</svg>
