<?xml version="1.0" encoding="iso-8859-1"?>
<!-- Generator: Adobe Illustrator 16.0.0, SVG Export Plug-In . SVG Version: 6.00 Build 0)  -->
<!DOCTYPE svg PUBLIC "-//W3C//DTD SVG 1.1//EN" "http://www.w3.org/Graphics/SVG/1.1/DTD/svg11.dtd">
<svg version="1.1" id="Capa_1" xmlns="http://www.w3.org/2000/svg" xmlns:xlink="http://www.w3.org/1999/xlink" x="0px" y="0px"
	 width="184.356px" height="184.356px" viewBox="0 0 184.356 184.356" style="enable-background:new 0 0 184.356 184.356;"
	 xml:space="preserve">
<g>
	<path d="M184.204,30.386c-1.546-9.202-10.873-16.263-17.698-21.738c-5.367-4.306-11.342-7.754-18.396-6.602
		c-7.76,1.267-12.833,11.091-14.889,17.664c-0.478,1.527,0.398,2.749,1.593,3.268c-4.009-0.241-8.069,1.145-12.135,5.135
		c-12.033,11.813-21.016,26.717-31.772,39.614c-3.092,3.708-6.165,7.376-9.086,11.124c-0.124-0.154-0.184-0.318-0.348-0.464
		C58.354,57.875,36.399,36.215,13.609,15.381c-0.011,0.019-0.022,0.037-0.033,0.056c-0.652-0.665-1.462-0.759-2.174-0.534
		c-0.725-0.652-1.959-0.681-2.664,0.371c-9.136,13.63-8.864,32.779-8.682,48.561c0.255,22.012,2.054,43.975,2.317,66.006
		c0.131,10.979-2.18,36.335,6.258,45.391c6.089,6.535,17.523,2.771,25.453,3.105c26.385,1.118,52.641,3.668,79.076,3.867
		c9.604,0.071,46.787,3.279,49.114-11.942c0.127-0.828-0.071-1.533-0.405-2.139c0.936-1.021,1.089-2.922,0.147-4.106
		c-6.627-8.33-15.421-15.562-22.473-23.714c-7.941-9.179-15.567-18.667-23.983-27.419c5.897-5.747,12.371-10.938,18.748-16.403
		c9.053-7.76,17.165-17.289,25.138-26.158c3.499-3.893,6.093-7.279,7.703-10.428c0.604-0.422,0.969-1.129,0.848-1.881
		c1.078-2.757,1.265-5.359,0.56-7.986c1.038,0.365,2.235,0.319,3.295-0.556C177.326,44.955,185.58,38.574,184.204,30.386z
		 M110.051,53.594c1.63-2.382,5.124-8.006,9.379-13.242c5.188,5.646,10.774,10.903,16.324,16.191
		c1.023,0.976,2.041,1.996,3.059,3.018c-8.874,3.231-15.548,12.697-20.902,19.902c-8.345,11.225-15.171,23.357-26.125,32.316
		c-1.737-1.957-4.466-2.782-7.557-2.398c5.242-6.123,8.76-13.632,13.209-20.322c8.79-13.215,19.114-25.135,30.844-35.801
		c2.44-2.219-1.145-5.735-3.596-3.595c-10.28,8.974-19.139,19.14-27.28,30.066c-5.982,8.026-10.333,17.11-16.161,25.204
		c-2.189-2.357-5.348-3.629-8.78-3.226C84.315,85.119,98.554,70.39,110.051,53.594z M64.765,134.452
		c0.371-1.396,0.769-2.782,1.156-4.174c2.031,2.147,4.003,4.35,6.131,6.402c0.249,0.24,0.511,0.482,0.767,0.724
		c-0.776,0.262-1.532,0.565-2.316,0.787c-0.938-0.745-1.947-1.417-2.897-2.066C66.7,135.502,65.751,134.935,64.765,134.452z
		 M67.009,139.005c-1.186,0.217-2.364,0.382-3.509,0.435c0.191-0.888,0.454-1.762,0.67-2.645c0.849,0.576,1.666,1.204,2.448,1.854
		C66.754,138.762,66.878,138.888,67.009,139.005z M67.009,128.153c-0.135-0.132-0.28-0.216-0.426-0.268
		c0.335-1.193,0.661-2.391,0.993-3.584c0.308,0.033,0.602,0.103,0.903,0.152c-0.065,0.338,0.001,0.713,0.306,1.062
		c2.993,3.425,6.5,6.699,10.194,9.515c-1.003,0.438-1.989,0.881-3.057,1.301c-0.919-0.64-1.831-1.29-2.67-2.044
		C71.084,132.339,69.097,130.188,67.009,128.153z M55.937,141.791c-0.385,2.467,0.959,4.123,3.389,4.448
		c8.298,1.113,17.267-2.794,24.715-5.95c2.609-1.106,7.123-2.932,10.902-5.37c4.236,4.303,13.6,10.855,2.634,11.797
		c-6.741,0.578-13.554,0.577-20.313,1.159c-10.119,0.872-36.92,6.225-40.939-6.701c-5.884-18.924-2.091-42.11-0.338-62.305
		c4.261,4.462,8.824,8.702,13.456,12.73c4.864,4.232,10.31,9.527,16.219,12.215c0.357,0.162,0.719,0.241,1.075,0.261
		C64.048,116.931,57.966,128.789,55.937,141.791z M94.472,125.269c-0.251,0.395-0.335,0.807-0.308,1.202
		c-0.64,0.545-1.278,1.097-1.962,1.596c-2.267,1.655-4.769,3-7.3,4.241c-2.881-6.29-9.729-10.465-16.578-10.759
		c1.373-5.307,2.339-10.667,2.195-16.201c5.142-1.037,9.305,1.605,8.646,7.243c-0.185,1.585,1.777,2.979,3.223,2.455
		c3.695-1.341,6.571-1.112,6.196,3.571c-0.085,1.063,0.848,2.317,1.908,2.507C93.484,121.654,96.505,122.071,94.472,125.269z
		 M16.306,25.714c-0.716-0.009-1.403-0.019-1.993-0.057c-1.102-0.072-2.532-0.183-3.852,0.01c0.279-1.929,0.538-3.854,0.888-5.798
		C12.951,21.854,14.636,23.779,16.306,25.714z M134.624,145.224c5.85,7.209,13.283,17.51,22.031,22.132
		c-0.231,0.327-0.418,0.723-0.526,1.212c-2.3,10.435-46.299,6.577-53.847,6.397c-20.8-0.495-41.549-2.163-62.301-3.54
		c-7.161-0.476-14.125-0.41-21.304,0.013c-3.233,0.191-5.378-3.284-6.797-8.608c0.564,0.026,1.114,0.045,1.627,0.073
		c2.98,0.167,6.337,0.335,9.158-0.783c1.377-0.547,1.266-2.65-0.362-2.679c-2.659-0.045-5.307,0.417-7.964,0.523
		c-1.061,0.042-2.105-0.017-3.147-0.088c-0.506-2.559-0.877-5.42-1.16-8.415c1.036,0.106,2.066,0.177,3.016,0.223
		c3.081,0.149,7.924,0.366,10.337-1.852c0.78-0.718,0.472-2.389-0.675-2.557c-2.801-0.408-5.847,0.865-8.688,1.077
		c-1.468,0.109-2.865,0.053-4.253-0.087c-0.181-2.556-0.3-5.178-0.376-7.786c4.151,0.823,8.676,1.521,12.461,0.293
		c1.664-0.54,1.359-2.981-0.411-3.04c-2.38-0.077-4.758,0.303-7.153,0.262c-1.656-0.028-3.314-0.223-4.967-0.447
		c-0.032-1.796-0.04-3.551-0.04-5.276c1.948,0.088,3.948-0.043,5.822-0.13c2.621-0.121,6.333-0.088,8.253-2.138
		c0.957-1.021,0.21-2.404-1.055-2.547c-2.552-0.29-5.514,0.973-8.072,1.271c-1.62,0.189-3.288,0.199-4.936,0.31
		c0.041-4.51,0.154-8.528,0.233-11.494c0.444,0.021,0.885,0.036,1.29,0.059c2.985,0.17,6.131,0.305,8.877-0.998
		c1.537-0.729,0.731-3.096-0.837-3.09c-2.279,0.009-4.52,0.338-6.8,0.465c-0.574,0.032-1.508,0.145-2.456,0.209
		c0.003-0.261,0.007-0.53,0.007-0.737c-0.003-3.816-0.063-7.595-0.154-11.347c3.826,0.501,7.913,0.422,10.654-2.04
		c1.076-0.967,0.295-3.204-1.251-3.019c-1.837,0.22-3.589,0.723-5.404,1.049c-1.335,0.24-2.718,0.296-4.102,0.26
		c-0.124-4.201-0.277-8.364-0.432-12.512c1.708,0.436,3.51,0.512,5.265,0.587c2.569,0.111,5.437,0.122,7.013-2.249
		c1.05-1.579-0.924-2.975-2.344-2.344c-0.579,0.257-1.814,0.145-2.507,0.268c-1.174,0.21-2.379,0.262-3.568,0.315
		c-1.346,0.06-2.652,0.094-3.976,0.239c-0.172-4.682-0.325-9.341-0.427-13.994c0.208,0.022,0.417,0.033,0.631,0.047
		c1.15,0.074,2.3,0.165,3.452,0.209c2.331,0.088,5.142,0.596,7.329-0.373c1.206-0.535,1.206-2.647,0-3.181
		c-2.075-0.92-4.622-0.455-6.833-0.388c-1.2,0.036-2.397,0.124-3.595,0.201c-0.332,0.021-0.695,0.03-1.043,0.072
		c-0.03-1.962-0.046-3.925-0.048-5.887c0.997,0,2.028-0.038,3.018-0.154c3.438-0.402,7.284-1.017,9.21-4.21
		c1.047-1.736-0.964-3.38-2.596-2.596c-3.042,1.461-6.314,2.232-9.606,2.82c0.053-4.758,0.252-9.531,0.568-14.324
		c1.628,0.31,3.262,0.581,4.915,0.782c2.511,0.306,5.078,0.56,7.101-1.117c1.036-0.859,0.317-2.353-0.723-2.74
		c-1.984-0.739-4.287-0.11-6.377-0.109c-1.564,0.001-3.13-0.119-4.693-0.274c0.229-2.781,0.522-5.574,0.874-8.379
		c1.423-0.26,5.481,0.99,6.33,1.174c1.637,0.355,3.379,1.034,5.03,1.128c17.013,18.601,36.746,35.181,55.464,51.713
		c0.426,0.376,0.878,0.601,1.335,0.733c-3.495,4.864-6.664,9.937-9.206,15.486c-4.264-4.021-9.712-6.99-14.452-10.441
		c-6.303-4.588-12.241-9.523-18.113-14.629c0.049-0.702,0.104-1.412,0.145-2.104c0.146-2.495-3.493-2.789-4.198-0.568
		c-5.268,16.595-5.523,35.791-5.254,53.002c0.207,13.29,0.908,26.957,15.461,30.66c9.838,2.504,20.979,1.065,30.935,0.299
		c9.321-0.718,19.688-0.223,28.832-1.951c16.919-3.197,5.073-15.962-2.252-23.161c0.027-0.038,0.067-0.071,0.093-0.109
		c0.909-0.046,1.804-0.451,2.417-1.467c2.926-4.844,6.386-9.103,10.149-13.055C119.668,125.822,126.91,135.719,134.624,145.224z
		 M137.145,84.771c-11.66,12.983-26.507,21.853-36.685,35.957c-1.119-2.32-4.188-3.573-6.751-4.219
		c-0.075-0.768-0.244-1.457-0.461-2.105c9.77-5.392,16.494-14.138,22.908-23.069c4.165-5.799,8.217-11.66,12.855-17.098
		c3.849-4.512,8.742-7.506,13.066-11.396c2.839,2.861,5.73,5.696,8.832,8.143C145.794,76.473,140.133,81.444,137.145,84.771z
		 M153.618,67.946c-4.419-5.185-10.373-9.455-15.49-13.776c-5.908-4.991-11.753-10.052-17.614-15.096
		c1.165-1.371,2.364-2.707,3.604-3.911c6.228,5.161,12.269,10.564,18.271,15.981c4.006,3.616,9.123,9.922,14.445,12.741
		C155.862,65.25,154.76,66.604,153.618,67.946z M159.366,59.795c-3.788-4.371-10.302-8.146-14.331-11.299
		c-6.433-5.031-12.933-9.932-19.751-14.42c1.283-1.15,2.588-2.17,3.893-2.955c10.781,8.201,21.467,16.37,31.658,25.262
		C160.478,57.506,159.965,58.648,159.366,59.795z M131.053,30.168c2.243-0.959,4.456-1.198,6.523-0.257
		c7.25,3.299,14.24,9.953,20.177,14.987c2.245,1.904,3.357,4.049,3.649,6.338C152.099,43.186,141.339,36.869,131.053,30.168z
		 M167.215,44.835c-0.304,0.253-0.475,0.533-0.649,0.812c-1.609-2.464-4.033-5.033-7.374-7.847
		c-7.058-5.947-14.744-13.247-22.667-14.618c0.736-0.117,1.431-0.498,1.878-1.288c2.976-4.944,5.361-11.708,11.462-13.486
		c4.573-1.333,10.167,3.468,13.369,6.042c5.049,4.057,10.257,8.675,13.568,14.284C180.598,35.164,171.332,41.413,167.215,44.835z"/>
</g>
<g>
</g>
<g>
</g>
<g>
</g>
<g>
</g>
<g>
</g>
<g>
</g>
<g>
</g>
<g>
</g>
<g>
</g>
<g>
</g>
<g>
</g>
<g>
</g>
<g>
</g>
<g>
</g>
<g>
</g>
</svg>
